<svg width="24" height="24" viewBox="0 0 24 24" fill="none" xmlns="http://www.w3.org/2000/svg">
<path d="M12.2387 13.5579C14.1428 13.5579 15.6863 12.0143 15.6863 10.1103C15.6863 8.20617 14.1428 6.6626 12.2387 6.6626C10.3346 6.6626 8.79102 8.20617 8.79102 10.1103C8.79102 12.0143 10.3346 13.5579 12.2387 13.5579Z" stroke="#020305" stroke-width="1.4" stroke-linecap="round" stroke-linejoin="round"/>
<path d="M6.35059 18.9363C6.96598 17.9261 7.83088 17.0913 8.86214 16.512C9.8934 15.9327 11.0563 15.6284 12.2392 15.6284C13.422 15.6284 14.585 15.9327 15.6162 16.512C16.6475 17.0913 17.5124 17.9261 18.1278 18.9363" stroke="#020305" stroke-width="1.4" stroke-linecap="round" stroke-linejoin="round"/>
<path d="M12.2393 21.1426C17.1899 21.1426 21.2032 17.1294 21.2032 12.1787C21.2032 7.22812 17.1899 3.21484 12.2393 3.21484C7.28867 3.21484 3.27539 7.22812 3.27539 12.1787C3.27539 17.1294 7.28867 21.1426 12.2393 21.1426Z" stroke="#020305" stroke-width="1.4" stroke-linecap="round" stroke-linejoin="round"/>
</svg>
