<svg width="24" height="24" viewBox="0 0 24 24" fill="none" xmlns="http://www.w3.org/2000/svg">
<path d="M5.69824 14.8634C6.97299 15.5033 8.42759 15.6903 9.82273 15.3935C11.2179 15.0967 12.4704 14.3339 13.3743 13.2305C13.9588 13.9531 14.6964 14.537 15.5338 14.9401C16.3713 15.3431 17.2878 15.5553 18.2172 15.5612" stroke="#020305" stroke-width="1.39565" stroke-linecap="round" stroke-linejoin="round"/>
<path d="M17.5608 11.3739H6.39565L5 4.39565L8.48912 6.48912L11.9782 3L15.4674 6.48912L18.9565 4.39565L17.5608 11.3739Z" stroke="#020305" stroke-width="1.39565" stroke-linecap="round" stroke-linejoin="round"/>
<path d="M6.75894 11.374C6.12628 12.3195 5.76233 13.4191 5.70596 14.5554C5.64959 15.6917 5.90291 16.8219 6.43887 17.8254C6.97484 18.8289 7.77331 19.668 8.74901 20.253C9.72472 20.838 10.841 21.147 11.9787 21.147C13.1163 21.147 14.2326 20.838 15.2083 20.253C16.184 19.668 16.9825 18.8289 17.5185 17.8254C18.0544 16.8219 18.3077 15.6917 18.2514 14.5554C18.195 13.4191 17.831 12.3195 17.1984 11.374H6.75894Z" stroke="#020305" stroke-width="1.39565" stroke-linecap="round" stroke-linejoin="round"/>
</svg>
