<svg width="24" height="24" viewBox="0 0 24 24" fill="none" xmlns="http://www.w3.org/2000/svg">
<path d="M4.64258 9.58691H19.8733V19.2792C19.8733 19.6464 19.7275 19.9986 19.4678 20.2583C19.2081 20.518 18.856 20.6638 18.4887 20.6638H6.02719C5.65997 20.6638 5.30779 20.518 5.04812 20.2583C4.78846 19.9986 4.64258 19.6464 4.64258 19.2792V9.58691V9.58691Z" stroke="#020305" stroke-width="1.4" stroke-linecap="round" stroke-linejoin="round"/>
<path d="M21.2578 8.20219V5.43296C21.2578 4.66825 20.6379 4.04834 19.8732 4.04834L4.64243 4.04834C3.87773 4.04834 3.25781 4.66825 3.25781 5.43296V8.20219C3.25781 8.96689 3.87773 9.5868 4.64243 9.5868H19.8732C20.6379 9.5868 21.2578 8.96689 21.2578 8.20219Z" stroke="#020305" stroke-width="1.4" stroke-linecap="round" stroke-linejoin="round"/>
<path d="M10.1807 13.7407H14.3345" stroke="#020305" stroke-width="1.4" stroke-linecap="round" stroke-linejoin="round"/>
</svg>
