<svg width="24" height="24" viewBox="0 0 24 24" fill="none" xmlns="http://www.w3.org/2000/svg">
<path d="M21.0898 11.7142L12.8146 20.0589C12.4935 20.3861 12.1105 20.646 11.6878 20.8234C11.2651 21.0008 10.8113 21.0921 10.3529 21.0921C9.89453 21.0921 9.44073 21.0008 9.01805 20.8234C8.59537 20.646 8.2123 20.3861 7.89122 20.0589L5.41561 17.5416C4.76754 16.8833 4.4043 15.9967 4.4043 15.0729C4.4043 14.1492 4.76754 13.2625 5.41561 12.6043L14.2332 3.75882C14.4918 3.49811 14.7995 3.29118 15.1384 3.14996C15.4774 3.00874 15.841 2.93604 16.2082 2.93604C16.5754 2.93604 16.9389 3.00874 17.2779 3.14996C17.6169 3.29118 17.9245 3.49811 18.1831 3.75882L19.1705 4.74629C19.4313 5.00487 19.6382 5.31252 19.7794 5.65148C19.9206 5.99044 19.9933 6.35401 19.9933 6.72121C19.9933 7.08841 19.9206 7.45198 19.7794 7.79094C19.6382 8.12991 19.4313 8.43755 19.1705 8.69614L11.3543 16.5402C11.225 16.6706 11.0712 16.774 10.9017 16.8446C10.7322 16.9153 10.5504 16.9516 10.3668 16.9516C10.1832 16.9516 10.0014 16.9153 9.83196 16.8446C9.66248 16.774 9.50866 16.6706 9.37937 16.5402L8.89259 16.0395C8.76223 15.9102 8.65877 15.7564 8.58816 15.5869C8.51755 15.4174 8.4812 15.2357 8.4812 15.0521C8.4812 14.8685 8.51755 14.6867 8.58816 14.5172C8.65877 14.3477 8.76223 14.1939 8.89259 14.0646L14.1359 8.86303" stroke="#020305" stroke-width="1.4" stroke-linecap="round" stroke-linejoin="round"/>
</svg>
