<svg width="24" height="24" viewBox="0 0 24 24" fill="none" xmlns="http://www.w3.org/2000/svg">
<path d="M16.4042 10.1671C16.4042 9.79988 16.2583 9.4477 15.9987 9.18803C15.739 8.92837 15.3868 8.78249 15.0196 8.78249H14.3273L12.9427 6.70557H10.1735L8.78884 8.78249H8.09653C7.72931 8.78249 7.37712 8.92837 7.11746 9.18803C6.85779 9.4477 6.71191 9.79988 6.71191 10.1671V13.6286C6.71191 13.9959 6.85779 14.348 7.11746 14.6077C7.37712 14.8674 7.72931 15.0133 8.09653 15.0133H15.0196C15.3868 15.0133 15.739 14.8674 15.9987 14.6077C16.2583 14.348 16.4042 13.9959 16.4042 13.6286V10.1671Z" stroke="#020305" stroke-width="1.4" stroke-linecap="round" stroke-linejoin="round"/>
<path d="M11.5586 20.5513C16.5292 20.5513 20.5586 16.5218 20.5586 11.5513C20.5586 6.58071 16.5292 2.55127 11.5586 2.55127C6.58803 2.55127 2.55859 6.58071 2.55859 11.5513C2.55859 16.5218 6.58803 20.5513 11.5586 20.5513Z" stroke="#020305" stroke-width="1.4" stroke-linecap="round" stroke-linejoin="round"/>
<path d="M11.5595 12.2435C11.9418 12.2435 12.2518 11.9335 12.2518 11.5512C12.2518 11.1688 11.9418 10.8589 11.5595 10.8589C11.1771 10.8589 10.8672 11.1688 10.8672 11.5512C10.8672 11.9335 11.1771 12.2435 11.5595 12.2435Z" stroke="#020305" stroke-width="1.4" stroke-linecap="round" stroke-linejoin="round"/>
</svg>
