<svg width="24" height="24" viewBox="0 0 24 24" fill="none" xmlns="http://www.w3.org/2000/svg">
<path d="M21.4686 9.61504C21.4686 9.24374 21.3211 8.88764 21.0585 8.62509C20.796 8.36254 20.4399 8.21504 20.0686 8.21504H17.2686L15.1686 5.41504H9.56856L7.46855 8.21504H4.66855C4.29725 8.21504 3.94116 8.36254 3.67861 8.62509C3.41605 8.88764 3.26855 9.24374 3.26855 9.61504V18.015C3.26855 18.3863 3.41605 18.7424 3.67861 19.005C3.94116 19.2675 4.29725 19.415 4.66855 19.415H20.0686C20.4399 19.415 20.796 19.2675 21.0585 19.005C21.3211 18.7424 21.4686 18.3863 21.4686 18.015V9.61504Z" stroke="#020305" stroke-width="1.4" stroke-linecap="round" stroke-linejoin="round"/>
<path d="M12.3688 16.2653C14.1084 16.2653 15.5188 14.855 15.5188 13.1153C15.5188 11.3756 14.1084 9.96533 12.3688 9.96533C10.6291 9.96533 9.21875 11.3756 9.21875 13.1153C9.21875 14.855 10.6291 16.2653 12.3688 16.2653Z" stroke="#020305" stroke-width="1.4" stroke-linecap="round" stroke-linejoin="round"/>
</svg>
