<svg width="24" height="24" viewBox="0 0 24 24" fill="none" xmlns="http://www.w3.org/2000/svg">
<path d="M5.07697 17.1367L3 17.6629L4.38465 13.5089V5.20105C4.38465 4.83382 4.53053 4.48163 4.7902 4.22196C5.04987 3.96229 5.40206 3.81641 5.76929 3.81641H16.8465C17.2137 3.81641 17.5659 3.96229 17.8255 4.22196C18.0852 4.48163 18.2311 4.83382 18.2311 5.20105V7.27802" stroke="#020305" stroke-width="1.38465" stroke-linecap="round" stroke-linejoin="round"/>
<path d="M16.1536 20.4318L20.9999 21.8164L20.3076 17.6625V12.1239C20.3076 11.7567 20.1617 11.4045 19.902 11.1448C19.6424 10.8851 19.2902 10.7393 18.9229 10.7393H9.92273C9.5555 10.7393 9.20331 10.8851 8.94364 11.1448C8.68397 11.4045 8.53809 11.7567 8.53809 12.1239V19.0471C8.53809 19.4144 8.68397 19.7666 8.94364 20.0262C9.20331 20.2859 9.5555 20.4318 9.92273 20.4318H16.1536Z" stroke="#020305" stroke-width="1.38465" stroke-linecap="round" stroke-linejoin="round"/>
</svg>
