<svg width="24" height="24" viewBox="0 0 24 24" fill="none" xmlns="http://www.w3.org/2000/svg">
<path d="M8.23295 12.0714C8.61833 12.0714 8.93074 11.759 8.93074 11.3736C8.93074 10.9882 8.61833 10.6758 8.23295 10.6758C7.84757 10.6758 7.53516 10.9882 7.53516 11.3736C7.53516 11.759 7.84757 12.0714 8.23295 12.0714Z" stroke="#020305" stroke-width="1.39558" stroke-linecap="round" stroke-linejoin="round"/>
<path d="M12.7691 12.0714C13.1545 12.0714 13.4669 11.759 13.4669 11.3736C13.4669 10.9882 13.1545 10.6758 12.7691 10.6758C12.3837 10.6758 12.0713 10.9882 12.0713 11.3736C12.0713 11.759 12.3837 12.0714 12.7691 12.0714Z" stroke="#020305" stroke-width="1.39558" stroke-linecap="round" stroke-linejoin="round"/>
<path d="M17.3042 12.0714C17.6896 12.0714 18.002 11.759 18.002 11.3736C18.002 10.9882 17.6896 10.6758 17.3042 10.6758C16.9189 10.6758 16.6064 10.9882 16.6064 11.3736C16.6064 11.759 16.9189 12.0714 17.3042 12.0714Z" stroke="#020305" stroke-width="1.39558" stroke-linecap="round" stroke-linejoin="round"/>
<path d="M8.58233 19.747L3 21.1426L4.39558 16.9558V4.39558C4.39558 4.02545 4.54262 3.67048 4.80434 3.40876C5.06606 3.14703 5.42103 3 5.79117 3H19.747C20.1171 3 20.4721 3.14703 20.7338 3.40876C20.9955 3.67048 21.1426 4.02545 21.1426 4.39558V18.3514C21.1426 18.7215 20.9955 19.0765 20.7338 19.3382C20.4721 19.6 20.1171 19.747 19.747 19.747H8.58233Z" stroke="#020305" stroke-width="1.39558" stroke-linecap="round" stroke-linejoin="round"/>
</svg>
