<svg width="24" height="24" viewBox="0 0 24 24" fill="none" xmlns="http://www.w3.org/2000/svg">
<path d="M15.9304 4.06689H18.0306C18.4019 4.06689 18.758 4.2144 19.0206 4.47697C19.2832 4.73954 19.4307 5.09566 19.4307 5.46699V19.468C19.4307 19.8393 19.2832 20.1954 19.0206 20.458C18.758 20.7206 18.4019 20.8681 18.0306 20.8681H6.82979C6.45846 20.8681 6.10234 20.7206 5.83977 20.458C5.5772 20.1954 5.42969 19.8393 5.42969 19.468V5.46699C5.42969 5.09566 5.5772 4.73954 5.83977 4.47697C6.10234 4.2144 6.45846 4.06689 6.82979 4.06689H8.92993" stroke="#020305" stroke-width="1.4001" stroke-linecap="round" stroke-linejoin="round"/>
<path d="M14.5311 2.66699H10.3308C9.55751 2.66699 8.93066 3.29384 8.93066 4.06709V4.76714C8.93066 5.54039 9.55751 6.16724 10.3308 6.16724H14.5311C15.3043 6.16724 15.9312 5.54039 15.9312 4.76714V4.06709C15.9312 3.29384 15.3043 2.66699 14.5311 2.66699Z" stroke="#020305" stroke-width="1.4001" stroke-linecap="round" stroke-linejoin="round"/>
<path d="M8.93066 13.8679L11.7309 15.9681L15.2311 10.3677" stroke="#020305" stroke-width="1.4001" stroke-linecap="round" stroke-linejoin="round"/>
</svg>
