<svg width="24" height="24" viewBox="0 0 24 24" fill="none" xmlns="http://www.w3.org/2000/svg">
<path d="M3 18.6542V5.39618C3 5.02604 3.14703 4.67107 3.40876 4.40935C3.67048 4.14763 4.02545 4.00059 4.39558 4.00059H9.54528C9.86408 3.9913 10.1764 4.09149 10.4304 4.28447C10.6843 4.47745 10.8645 4.75159 10.9409 5.06124L11.3735 6.79176H19.747C20.1171 6.79176 20.4721 6.93879 20.7338 7.20051C20.9955 7.46224 21.1426 7.81721 21.1426 8.18734V18.6542C21.1426 19.0243 20.9955 19.3793 20.7338 19.641C20.4721 19.9028 20.1171 20.0498 19.747 20.0498H4.39558C4.02545 20.0498 3.67048 19.9028 3.40876 19.641C3.14703 19.3793 3 19.0243 3 18.6542Z" stroke="#020305" stroke-width="1.39558" stroke-linecap="round" stroke-linejoin="round"/>
<path d="M9.2793 14.4675L11.3727 15.8631L14.8616 10.2808" stroke="#020305" stroke-width="1.39558" stroke-linecap="round" stroke-linejoin="round"/>
</svg>
