<svg width="24" height="24" viewBox="0 0 24 24" fill="none" xmlns="http://www.w3.org/2000/svg">
<path d="M15.7236 3.94238H17.8061C18.1742 3.94238 18.5274 4.08865 18.7877 4.349C19.0481 4.60935 19.1943 4.96247 19.1943 5.33066V19.2135C19.1943 19.5817 19.0481 19.9348 18.7877 20.1951C18.5274 20.4555 18.1742 20.6018 17.8061 20.6018H6.6998C6.33161 20.6018 5.97849 20.4555 5.71814 20.1951C5.45779 19.9348 5.31152 19.5817 5.31152 19.2135V5.33066C5.31152 4.96247 5.45779 4.60935 5.71814 4.349C5.97849 4.08865 6.33161 3.94238 6.6998 3.94238H8.78223" stroke="#020305" stroke-width="1.4" stroke-linecap="round" stroke-linejoin="round"/>
<path d="M14.3354 2.5542H10.1705C9.40378 2.5542 8.78223 3.17575 8.78223 3.94248V4.63662C8.78223 5.40335 9.40378 6.0249 10.1705 6.0249H14.3354C15.1021 6.0249 15.7236 5.40335 15.7236 4.63662V3.94248C15.7236 3.17575 15.1021 2.5542 14.3354 2.5542Z" stroke="#020305" stroke-width="1.4" stroke-linecap="round" stroke-linejoin="round"/>
<path d="M8.31152 9.5542H15.2529" stroke="#020305" stroke-width="1.4" stroke-linecap="round" stroke-linejoin="round"/>
<path d="M8.78223 12.9663H15.7236" stroke="#020305" stroke-width="1.4" stroke-linecap="round" stroke-linejoin="round"/>
<path d="M8.78223 16.437H15.7236" stroke="#020305" stroke-width="1.4" stroke-linecap="round" stroke-linejoin="round"/>
</svg>
