<svg width="24" height="24" viewBox="0 0 24 24" fill="none" xmlns="http://www.w3.org/2000/svg">
<path d="M9.28015 19.7471H4.39559C4.02546 19.7471 3.67048 19.6 3.40876 19.3383C3.14703 19.0766 3 18.7216 3 18.3515V4.39559C3 4.02546 3.14703 3.67048 3.40876 3.40876C3.67048 3.14703 4.02546 3 4.39559 3H19.7471C20.1172 3 20.4722 3.14703 20.7339 3.40876C20.9956 3.67048 21.1426 4.02546 21.1426 4.39559V9.97794" stroke="#000001" stroke-width="1.39559" stroke-linecap="round" stroke-linejoin="round"/>
<path d="M3 7.18701H21.1426" stroke="#000001" stroke-width="1.39559" stroke-linecap="round" stroke-linejoin="round"/>
<path d="M16.9563 21.1426C19.2686 21.1426 21.1431 19.2681 21.1431 16.9558C21.1431 14.6435 19.2686 12.769 16.9563 12.769C14.644 12.769 12.7695 14.6435 12.7695 16.9558C12.7695 19.2681 14.644 21.1426 16.9563 21.1426Z" stroke="#000001" stroke-width="1.39559" stroke-linecap="round" stroke-linejoin="round"/>
<path d="M16.9561 16.9559L18.0027 15.9092" stroke="#000001" stroke-width="1.39559" stroke-linecap="round" stroke-linejoin="round"/>
</svg>
