<svg width="24" height="24" viewBox="0 0 24 24" fill="none" xmlns="http://www.w3.org/2000/svg">
<path d="M2.59277 20.6826H17.8169" stroke="#020305" stroke-width="1.4" stroke-linecap="round" stroke-linejoin="round"/>
<path d="M10.8962 15.8388L6.74414 16.5862L7.43615 12.3788L16.7506 3.09201C16.8792 2.96229 17.0323 2.85932 17.201 2.78906C17.3696 2.71879 17.5505 2.68262 17.7332 2.68262C17.9159 2.68262 18.0968 2.71879 18.2655 2.78906C18.4341 2.85932 18.5872 2.96229 18.7159 3.09201L20.1829 4.55906C20.3127 4.68773 20.4156 4.8408 20.4859 5.00945C20.5561 5.17811 20.5923 5.35901 20.5923 5.54171C20.5923 5.72442 20.5561 5.90532 20.4859 6.07397C20.4156 6.24263 20.3127 6.3957 20.1829 6.52436L10.8962 15.8388Z" stroke="#020305" stroke-width="1.4" stroke-linecap="round" stroke-linejoin="round"/>
</svg>
