<svg width="24" height="24" viewBox="0 0 24 24" fill="none" xmlns="http://www.w3.org/2000/svg">
<path d="M16.3135 12.0807C16.3134 12.9065 16.0692 13.714 15.6117 14.4016C15.1542 15.0892 14.5038 15.6263 13.7421 15.9454C12.9803 16.2646 12.1413 16.3515 11.3303 16.1954C10.5193 16.0393 9.77252 15.647 9.18372 15.0679C8.59493 14.4887 8.19037 13.7485 8.02086 12.9402C7.85136 12.1319 7.92445 11.2916 8.23096 10.5247C8.53748 9.75777 9.06376 9.09853 9.7437 8.62974C10.4236 8.16095 11.2269 7.90351 12.0527 7.88974C12.6089 7.88047 13.1614 7.98203 13.678 8.18848C14.1945 8.39494 14.6648 8.70217 15.0614 9.09226C15.458 9.48235 15.7729 9.94749 15.9879 10.4606C16.2029 10.9736 16.3135 11.5244 16.3135 12.0807V12.0807Z" stroke="#020305" stroke-width="1.39697" stroke-linecap="round" stroke-linejoin="round"/>
<path d="M16.313 12.0803V13.8964C16.313 18.7718 23.9545 14.1758 19.9452 7.55413C19.1378 6.17538 17.9856 5.03048 16.6017 4.23199C15.2178 3.43351 13.65 3.00893 12.0523 3C10.71 3.00415 9.38537 3.30582 8.17368 3.8833C6.96199 4.46078 5.8934 5.29972 5.04483 6.33971C4.19625 7.37971 3.58879 8.59489 3.26618 9.89781C2.94356 11.2007 2.91382 12.559 3.17908 13.8748C3.44435 15.1905 3.99802 16.4312 4.80025 17.5073C5.60249 18.5835 6.63332 19.4684 7.81857 20.0983C9.00381 20.7283 10.314 21.0877 11.6548 21.1506C12.9956 21.2135 14.3336 20.9784 15.5726 20.4621" stroke="#020305" stroke-width="1.39697" stroke-linecap="round" stroke-linejoin="round"/>
</svg>
