<svg width="25" height="24" viewBox="0 0 25 24" fill="none" xmlns="http://www.w3.org/2000/svg">
<path d="M12.0712 18.3518C15.5396 18.3518 18.3513 15.5401 18.3513 12.0717C18.3513 8.60322 15.5396 5.7915 12.0712 5.7915C8.60273 5.7915 5.79102 8.60322 5.79102 12.0717C5.79102 15.5401 8.60273 18.3518 12.0712 18.3518Z" stroke="#000001" stroke-width="1.39559" stroke-linecap="round" stroke-linejoin="round"/>
<path d="M12.0718 12.7691C12.4572 12.7691 12.7696 12.4567 12.7696 12.0713C12.7696 11.6859 12.4572 11.3735 12.0718 11.3735C11.6864 11.3735 11.374 11.6859 11.374 12.0713C11.374 12.4567 11.6864 12.7691 12.0718 12.7691Z" stroke="#000001" stroke-width="1.39559" stroke-linecap="round" stroke-linejoin="round"/>
<path d="M12.0713 5.79118V3" stroke="#000001" stroke-width="1.39559" stroke-linecap="round" stroke-linejoin="round"/>
<path d="M12.0713 21.1423V18.3511" stroke="#000001" stroke-width="1.39559" stroke-linecap="round" stroke-linejoin="round"/>
<path d="M18.3516 12.0713H21.1427" stroke="#000001" stroke-width="1.39559" stroke-linecap="round" stroke-linejoin="round"/>
<path d="M3 12.0713H5.79118" stroke="#000001" stroke-width="1.39559" stroke-linecap="round" stroke-linejoin="round"/>
</svg>
