<svg width="24" height="24" viewBox="0 0 24 24" fill="none" xmlns="http://www.w3.org/2000/svg">
<path d="M5.09338 10.6755C6.24953 10.6755 7.18676 9.7383 7.18676 8.58215C7.18676 7.42601 6.24953 6.48877 5.09338 6.48877C3.93724 6.48877 3 7.42601 3 8.58215C3 9.7383 3.93724 10.6755 5.09338 10.6755Z" stroke="#020305" stroke-width="1.39559" stroke-linecap="round" stroke-linejoin="round"/>
<path d="M5.09375 10.6758V21.1427" stroke="#020305" stroke-width="1.39559" stroke-linecap="round" stroke-linejoin="round"/>
<path d="M5.09375 3V6.48897" stroke="#020305" stroke-width="1.39559" stroke-linecap="round" stroke-linejoin="round"/>
<path d="M19.0494 10.6755C20.2056 10.6755 21.1428 9.7383 21.1428 8.58215C21.1428 7.42601 20.2056 6.48877 19.0494 6.48877C17.8933 6.48877 16.9561 7.42601 16.9561 8.58215C16.9561 9.7383 17.8933 10.6755 19.0494 10.6755Z" stroke="#020305" stroke-width="1.39559" stroke-linecap="round" stroke-linejoin="round"/>
<path d="M19.0488 6.48897V3" stroke="#020305" stroke-width="1.39559" stroke-linecap="round" stroke-linejoin="round"/>
<path d="M19.0488 21.1427V10.6758" stroke="#020305" stroke-width="1.39559" stroke-linecap="round" stroke-linejoin="round"/>
<path d="M12.0709 14.1648C13.2271 14.1648 14.1643 13.2276 14.1643 12.0714C14.1643 10.9153 13.2271 9.97803 12.0709 9.97803C10.9148 9.97803 9.97754 10.9153 9.97754 12.0714C9.97754 13.2276 10.9148 14.1648 12.0709 14.1648Z" stroke="#020305" stroke-width="1.39559" stroke-linecap="round" stroke-linejoin="round"/>
<path d="M12.0713 3V9.97794" stroke="#020305" stroke-width="1.39559" stroke-linecap="round" stroke-linejoin="round"/>
<path d="M12.0713 14.1646V21.1425" stroke="#020305" stroke-width="1.39559" stroke-linecap="round" stroke-linejoin="round"/>
</svg>
