<svg width="24" height="24" viewBox="0 0 24 24" fill="none" xmlns="http://www.w3.org/2000/svg">
<path d="M4.67156 7.16686C5.82936 7.16686 6.76793 6.22828 6.76793 5.07049C6.76793 3.9127 5.82936 2.97412 4.67156 2.97412C3.51377 2.97412 2.5752 3.9127 2.5752 5.07049C2.5752 6.22828 3.51377 7.16686 4.67156 7.16686Z" stroke="#020305" stroke-width="1.39758" stroke-linecap="round" stroke-linejoin="round"/>
<path d="M6.76758 5.07031H20.7434" stroke="#020305" stroke-width="1.39758" stroke-linecap="round" stroke-linejoin="round"/>
<path d="M11.6589 14.1547C12.8167 14.1547 13.7552 13.2161 13.7552 12.0583C13.7552 10.9005 12.8167 9.96191 11.6589 9.96191C10.5011 9.96191 9.5625 10.9005 9.5625 12.0583C9.5625 13.2161 10.5011 14.1547 11.6589 14.1547Z" stroke="#020305" stroke-width="1.39758" stroke-linecap="round" stroke-linejoin="round"/>
<path d="M2.5752 12.0586H9.56309" stroke="#020305" stroke-width="1.39758" stroke-linecap="round" stroke-linejoin="round"/>
<path d="M13.7559 12.0586H20.7438" stroke="#020305" stroke-width="1.39758" stroke-linecap="round" stroke-linejoin="round"/>
<path d="M18.6471 21.1429C19.8049 21.1429 20.7435 20.2044 20.7435 19.0466C20.7435 17.8888 19.8049 16.9502 18.6471 16.9502C17.4894 16.9502 16.5508 17.8888 16.5508 19.0466C16.5508 20.2044 17.4894 21.1429 18.6471 21.1429Z" stroke="#020305" stroke-width="1.39758" stroke-linecap="round" stroke-linejoin="round"/>
<path d="M16.551 19.0464H2.5752" stroke="#020305" stroke-width="1.39758" stroke-linecap="round" stroke-linejoin="round"/>
</svg>
