<svg width="24" height="24" viewBox="0 0 24 24" fill="none" xmlns="http://www.w3.org/2000/svg">
<path d="M7.90982 19.4282H19.8318C20.6064 19.4282 21.2344 18.8003 21.2344 18.0256V8.90884C21.2344 8.13421 20.6064 7.50625 19.8318 7.50625L7.90982 7.50625C7.13519 7.50625 6.50724 8.13421 6.50724 8.90884L6.50724 18.0256C6.50724 18.8003 7.13519 19.4282 7.90982 19.4282Z" stroke="#020305" stroke-width="1.40258" stroke-linecap="round" stroke-linejoin="round"/>
<path d="M3 15.922V5.40258C3 5.0306 3.14777 4.67384 3.41081 4.41081C3.67384 4.14777 4.0306 4 4.40258 4H17.0258" stroke="#020305" stroke-width="1.40258" stroke-linecap="round" stroke-linejoin="round"/>
<path d="M7.34863 19.3164L12.8608 13.4957C12.9912 13.3524 13.1498 13.2377 13.3267 13.1588C13.5036 13.0799 13.6949 13.0385 13.8886 13.0371C14.0823 13.0358 14.2742 13.0746 14.4521 13.1512C14.6301 13.2277 14.7903 13.3402 14.9226 13.4817L20.4628 19.2884" stroke="#020305" stroke-width="1.40258" stroke-linecap="round" stroke-linejoin="round"/>
</svg>
