<svg width="24" height="24" viewBox="0 0 24 24" fill="none" xmlns="http://www.w3.org/2000/svg">
<path d="M10.0001 18C11.5861 18 13.0646 17.5342 14.3094 16.7347L19.0731 21.4984C19.3969 21.8219 19.8274 22 20.2858 22C20.7442 22 21.1747 21.8219 21.4983 21.4982C22.1669 20.8295 22.1669 19.7417 21.4983 19.073L16.7347 14.3094C17.5341 13.0645 18 11.586 18 9.99998C18 5.58897 14.4112 2 9.99998 2C5.58881 2 2 5.58881 2 9.99998C2 14.4112 5.58889 18 10.0001 18ZM5.76987 15.3908C6.0575 13.7645 7.45848 12.5715 9.14313 12.5715H10.8574C12.542 12.5715 13.943 13.7645 14.2307 15.3908C13.0644 16.3079 11.5956 16.8572 10.0005 16.8572C8.40533 16.8572 6.93599 16.3079 5.76987 15.3908ZM20.6902 19.8814C20.9131 20.1045 20.9131 20.4675 20.6902 20.6904C20.4748 20.9058 20.0965 20.9056 19.8811 20.6906L15.2338 16.0432C15.5224 15.7929 15.7926 15.5227 16.0429 15.2341L20.6902 19.8814ZM10.0001 3.1431C13.781 3.1431 16.8572 6.21913 16.8572 10.0002C16.8572 11.7185 16.2205 13.2898 15.1726 14.4945C14.5511 12.6897 12.8553 11.429 10.8571 11.429H9.1428C7.14472 11.429 5.44893 12.6897 4.8273 14.4945C3.7793 13.2899 3.14269 11.7187 3.14269 10.0002C3.14269 6.21913 6.21913 3.1431 10.0001 3.1431Z" fill="#020305"/>
<path d="M9.70284 10.56C11.2783 10.56 12.56 9.27826 12.56 7.70284C12.56 6.12741 11.2783 4.8457 9.70284 4.8457C8.12741 4.8457 6.8457 6.12741 6.8457 7.70284C6.8457 9.27826 8.12741 10.56 9.70284 10.56ZM9.70284 5.98856C10.6481 5.98856 11.4171 6.75754 11.4171 7.70284C11.4171 8.64814 10.6481 9.41712 9.70284 9.41712C8.75754 9.41712 7.98856 8.64814 7.98856 7.70284C7.98856 6.75754 8.75754 5.98856 9.70284 5.98856Z" fill="#020305"/>
</svg>
