<svg width="24" height="24" viewBox="0 0 24 24" fill="none" xmlns="http://www.w3.org/2000/svg">
<path d="M4.28487 20.874L19.4155 20.874C20.1752 20.874 20.791 20.2582 20.791 19.4985L20.791 4.36788C20.791 3.60821 20.1752 2.99237 19.4155 2.99237L4.28487 2.99237C3.5252 2.99237 2.90936 3.60821 2.90936 4.36788L2.90936 19.4985C2.90936 20.2582 3.5252 20.874 4.28487 20.874Z" stroke="#020305" stroke-width="1.4" stroke-linecap="round" stroke-linejoin="round"/>
<path d="M14.9306 11.2454C16.26 11.2454 17.3377 10.1677 17.3377 8.8383C17.3377 7.50887 16.26 6.43115 14.9306 6.43115C13.6012 6.43115 12.5234 7.50887 12.5234 8.8383C12.5234 10.1677 13.6012 11.2454 14.9306 11.2454Z" stroke="#020305" stroke-width="1.4" stroke-linecap="round" stroke-linejoin="round"/>
<path d="M15.1376 20.8738C14.6947 18.5148 13.428 16.3899 11.5636 14.8782C9.69923 13.3666 7.35839 12.5665 4.95878 12.6208C4.26645 12.6189 3.57554 12.6834 2.89551 12.8133" stroke="#020305" stroke-width="1.4" stroke-linecap="round" stroke-linejoin="round"/>
<path d="M20.7783 15.9361C19.6704 15.5619 18.5089 15.3714 17.3395 15.3721C15.8594 15.3689 14.3943 15.6685 13.0342 16.2524" stroke="#020305" stroke-width="1.4" stroke-linecap="round" stroke-linejoin="round"/>
</svg>
