<svg width="24" height="24" viewBox="0 0 24 24" fill="none" xmlns="http://www.w3.org/2000/svg">
<path d="M12.0713 21.1426C17.0813 21.1426 21.1426 17.0813 21.1426 12.0713C21.1426 7.06137 17.0813 3 12.0713 3C7.06137 3 3 7.06137 3 12.0713C3 17.0813 7.06137 21.1426 12.0713 21.1426Z" stroke="#020305" stroke-width="1.39559" stroke-linecap="round" stroke-linejoin="round"/>
<path d="M19.7192 7.18701H14.1369C13.3966 7.18701 12.6867 7.48108 12.1632 8.00453C11.6398 8.52798 11.3457 9.23792 11.3457 9.97819C11.3457 10.7185 11.6398 11.4284 12.1632 11.9518C12.6867 12.4753 13.3966 12.7694 14.1369 12.7694C14.507 12.7694 14.862 12.9164 15.1237 13.1781C15.3854 13.4398 15.5325 13.7948 15.5325 14.165V20.4451" stroke="#020305" stroke-width="1.39559" stroke-linecap="round" stroke-linejoin="round"/>
<path d="M3.11133 13.4668H6.48865C7.22892 13.4668 7.93886 13.7609 8.46231 14.2843C8.98576 14.8078 9.27983 15.5177 9.27983 16.258V20.7099" stroke="#020305" stroke-width="1.39559" stroke-linecap="round" stroke-linejoin="round"/>
</svg>
