<svg width="24" height="24" viewBox="0 0 24 24" fill="none" xmlns="http://www.w3.org/2000/svg">
<path d="M18.5606 9.28029C18.5606 12.7554 12.2803 21.1431 12.2803 21.1431C12.2803 21.1431 6 12.7554 6 9.28029C6 7.61466 6.66167 6.01724 7.83945 4.83945C9.01724 3.66167 10.6147 3 12.2803 3C13.9459 3 15.5433 3.66167 16.7211 4.83945C17.8989 6.01724 18.5606 7.61466 18.5606 9.28029V9.28029Z" stroke="#020305" stroke-width="1.39562" stroke-linecap="round" stroke-linejoin="round"/>
<path d="M12.28 11.3739C13.4361 11.3739 14.3734 10.4366 14.3734 9.28044C14.3734 8.12427 13.4361 7.18701 12.28 7.18701C11.1238 7.18701 10.1865 8.12427 10.1865 9.28044C10.1865 10.4366 11.1238 11.3739 12.28 11.3739Z" stroke="#020305" stroke-width="1.39562" stroke-linecap="round" stroke-linejoin="round"/>
</svg>
