<svg width="25" height="24" viewBox="0 0 25 24" fill="none" xmlns="http://www.w3.org/2000/svg">
<path d="M16.4501 16.3009V19.7593C16.4501 20.1262 16.3043 20.478 16.0449 20.7375C15.7855 20.9969 15.4336 21.1426 15.0667 21.1426H5.38334C5.01646 21.1426 4.6646 20.9969 4.40517 20.7375C4.14574 20.478 4 20.1262 4 19.7593V4.54252C4 4.17564 4.14574 3.82378 4.40517 3.56435C4.6646 3.30492 5.01646 3.15918 5.38334 3.15918H15.0667C15.4336 3.15918 15.7855 3.30492 16.0449 3.56435C16.3043 3.82378 16.4501 4.17564 16.4501 4.54252V8.00088" stroke="#020305" stroke-width="1.4" stroke-linecap="round" stroke-linejoin="round"/>
<path d="M20.6 12.1509H9.5332" stroke="#020305" stroke-width="1.4" stroke-linecap="round" stroke-linejoin="round"/>
<path d="M12.2999 9.38428L9.5332 12.151L12.2999 14.9177" stroke="#020305" stroke-width="1.4" stroke-linecap="round" stroke-linejoin="round"/>
</svg>
