<svg width="24" height="24" viewBox="0 0 24 24" fill="none" xmlns="http://www.w3.org/2000/svg">
<path d="M15.504 16.9935V19.7596C15.504 20.1264 15.3583 20.4782 15.0989 20.7376C14.8396 20.9969 14.4878 21.1426 14.121 21.1426H4.43968C4.07288 21.1426 3.7211 20.9969 3.46172 20.7376C3.20235 20.4782 3.05664 20.1264 3.05664 19.7596V4.54613C3.05664 4.17932 3.20235 3.82754 3.46172 3.56817C3.7211 3.3088 4.07288 3.16309 4.43968 3.16309H14.121C14.4878 3.16309 14.8396 3.3088 15.0989 3.56817C15.3583 3.82754 15.504 4.17932 15.504 4.54613V7.31222" stroke="#020305" stroke-width="1.4" stroke-linecap="round" stroke-linejoin="round"/>
<path d="M11.3555 12.1528H21.0368" stroke="#020305" stroke-width="1.4" stroke-linecap="round" stroke-linejoin="round"/>
<path d="M18.2705 9.38672L21.0366 12.1528L18.2705 14.9189" stroke="#020305" stroke-width="1.4" stroke-linecap="round" stroke-linejoin="round"/>
</svg>
