<svg width="24" height="24" viewBox="0 0 24 24" fill="none" xmlns="http://www.w3.org/2000/svg">
<path d="M15.651 12.2865C15.7106 12.1329 15.8152 12.001 15.9512 11.9079C16.0871 11.8149 16.2479 11.7651 16.4126 11.7651C16.5773 11.7651 16.7382 11.8149 16.8741 11.9079C17.01 12.001 17.1147 12.1329 17.1743 12.2865L18.0605 14.5437H20.4285C20.5969 14.5461 20.7607 14.5989 20.8989 14.6951C21.037 14.7913 21.1433 14.9267 21.204 15.0837C21.2626 15.2385 21.2728 15.4075 21.2332 15.5682C21.1937 15.729 21.1062 15.8739 20.9824 15.9838L18.8914 17.8533L19.7777 19.6258C19.8579 19.7814 19.8851 19.959 19.8551 20.1315C19.8251 20.304 19.7396 20.4619 19.6115 20.5813C19.4843 20.7022 19.3227 20.7805 19.1489 20.8054C18.9752 20.8302 18.7981 20.8003 18.6421 20.7198L16.4126 19.4597L14.1831 20.6783C14.0272 20.7587 13.8501 20.7886 13.6763 20.7638C13.5026 20.739 13.341 20.6607 13.2138 20.5398C13.0857 20.4204 13.0002 20.2624 12.9702 20.09C12.9402 19.9175 12.9674 19.7399 13.0476 19.5843L13.9339 17.8118L11.8428 15.9284C11.7191 15.8185 11.6316 15.6736 11.592 15.5129C11.5525 15.3521 11.5627 15.1832 11.6213 15.0283C11.6904 14.8816 11.8002 14.7579 11.9378 14.672C12.0753 14.586 12.2346 14.5415 12.3968 14.5437H14.7647L15.651 12.2865Z" stroke="#020305" stroke-width="1.4" stroke-linecap="round" stroke-linejoin="round"/>
<path d="M8.1036 15.2356H4.64163C4.27436 15.2356 3.92213 15.0897 3.66243 14.83C3.40273 14.5703 3.25684 14.218 3.25684 13.8508V4.15725C3.25684 3.78998 3.40273 3.43775 3.66243 3.17806C3.92213 2.91836 4.27436 2.77246 4.64163 2.77246H18.4895C18.8568 2.77246 19.209 2.91836 19.4687 3.17806C19.7284 3.43775 19.8743 3.78998 19.8743 4.15725V9.69641" stroke="#020305" stroke-width="1.4" stroke-linecap="round" stroke-linejoin="round"/>
<path d="M3.25684 4.51709L11.5656 10.3886L19.8743 4.51709" stroke="#020305" stroke-width="1.4" stroke-linecap="round" stroke-linejoin="round"/>
</svg>
