<svg width="25" height="24" viewBox="0 0 25 24" fill="none" xmlns="http://www.w3.org/2000/svg">
<path d="M19.5886 14.1538C20.7357 14.1538 21.6655 13.224 21.6655 12.0769C21.6655 10.9299 20.7357 10 19.5886 10C18.4416 10 17.5117 10.9299 17.5117 12.0769C17.5117 13.224 18.4416 14.1538 19.5886 14.1538Z" stroke="#020305" stroke-width="1.4" stroke-linecap="round" stroke-linejoin="round"/>
<path d="M12.6648 14.1538C13.8118 14.1538 14.7417 13.224 14.7417 12.0769C14.7417 10.9299 13.8118 10 12.6648 10C11.5178 10 10.5879 10.9299 10.5879 12.0769C10.5879 13.224 11.5178 14.1538 12.6648 14.1538Z" stroke="#020305" stroke-width="1.4" stroke-linecap="round" stroke-linejoin="round"/>
<path d="M5.74195 14.1538C6.889 14.1538 7.81886 13.224 7.81886 12.0769C7.81886 10.9299 6.889 10 5.74195 10C4.5949 10 3.66504 10.9299 3.66504 12.0769C3.66504 13.224 4.5949 14.1538 5.74195 14.1538Z" stroke="#020305" stroke-width="1.4" stroke-linecap="round" stroke-linejoin="round"/>
</svg>
