<svg width="24" height="24" viewBox="0 0 24 24" fill="none" xmlns="http://www.w3.org/2000/svg">
<path d="M12.0713 8.58221V6.48877" stroke="#020305" stroke-width="1.39563" stroke-linecap="round" stroke-linejoin="round"/>
<path d="M9.97852 14.1645C9.97852 15.2113 10.9136 15.5602 12.072 15.5602C13.2303 15.5602 14.1654 15.5602 14.1654 14.1645C14.1654 12.0711 9.97852 12.0711 9.97852 9.97766C9.97852 8.58203 10.9136 8.58203 12.072 8.58203C13.2303 8.58203 14.1654 9.11237 14.1654 9.97766" stroke="#020305" stroke-width="1.39563" stroke-linecap="round" stroke-linejoin="round"/>
<path d="M12.0723 15.5601V17.6535" stroke="#020305" stroke-width="1.39563" stroke-linecap="round" stroke-linejoin="round"/>
<path d="M12.0716 21.1431C17.0817 21.1431 21.1431 17.0817 21.1431 12.0716C21.1431 7.06148 17.0817 3 12.0716 3C7.06148 3 3 7.06148 3 12.0716C3 17.0817 7.06148 21.1431 12.0716 21.1431Z" stroke="#020305" stroke-width="1.39563" stroke-linecap="round" stroke-linejoin="round"/>
</svg>
