<svg width="24" height="24" viewBox="0 0 24 24" fill="none" xmlns="http://www.w3.org/2000/svg">
<path d="M5.34277 6.34237C6.08903 5.8439 6.94206 5.52793 7.83297 5.41997C8.72387 5.31202 9.62768 5.41511 10.4714 5.72092C11.3151 6.02674 12.0751 6.52669 12.6899 7.18042C13.3047 7.83414 13.7572 8.6233 14.0107 9.48416C14.4912 8.99004 15.0856 8.6215 15.7419 8.41091C16.3981 8.20033 17.096 8.15415 17.7742 8.27644C18.4525 8.39874 19.0903 8.68575 19.6316 9.11227C20.173 9.53879 20.6013 10.0917 20.8789 10.7225C21.1565 11.3533 21.2749 12.0427 21.2237 12.73C21.1725 13.4172 20.9533 14.0814 20.5853 14.6641C20.2173 15.2468 19.7118 15.7303 19.1133 16.0719C18.5147 16.4135 17.8414 16.6029 17.1525 16.6233L15.75 16.6934" stroke="#020305" stroke-width="1.40258" stroke-linecap="round" stroke-linejoin="round"/>
<path d="M3.35066 9.04932C3.11742 9.67766 2.99866 10.3427 3.00001 11.0129C3.00001 12.5009 3.5911 13.9279 4.64324 14.98C5.69538 16.0322 7.1224 16.6233 8.61035 16.6233H10.7142" stroke="#020305" stroke-width="1.40258" stroke-linecap="round" stroke-linejoin="round"/>
<path d="M3 4L18.4284 19.4284" stroke="#020305" stroke-width="1.40258" stroke-linecap="round" stroke-linejoin="round"/>
</svg>
