<svg width="24" height="24" viewBox="0 0 24 24" fill="none" xmlns="http://www.w3.org/2000/svg">
<path d="M10.9365 20.334H13.7559" stroke="#020305" stroke-width="1.4" stroke-linecap="round" stroke-linejoin="round"/>
<path d="M17.9849 9.76134C17.9849 8.26584 17.3908 6.8316 16.3333 5.77412C15.2758 4.71664 13.8416 4.12256 12.3461 4.12256C10.8506 4.12256 9.41635 4.71664 8.35888 5.77412C7.3014 6.8316 6.70732 8.26584 6.70732 9.76134V14.6953C6.70732 15.2561 6.48453 15.7939 6.08798 16.1905C5.69143 16.587 5.15358 16.8098 4.59277 16.8098H20.0994C19.5386 16.8098 19.0008 16.587 18.6042 16.1905C18.2077 15.7939 17.9849 15.2561 17.9849 14.6953V9.76134Z" stroke="#020305" stroke-width="1.4" stroke-linecap="round" stroke-linejoin="round"/>
<path d="M3.18359 9.57811C3.18435 8.23628 3.50435 6.91388 4.11714 5.72016C4.72994 4.52643 5.61795 3.49562 6.70783 2.71289" stroke="#020305" stroke-width="1.4" stroke-linecap="round" stroke-linejoin="round"/>
<path d="M21.5096 9.57811C21.5088 8.23628 21.1888 6.91388 20.576 5.72016C19.9632 4.52643 19.0752 3.49562 17.9854 2.71289" stroke="#020305" stroke-width="1.4" stroke-linecap="round" stroke-linejoin="round"/>
</svg>
