<svg width="24" height="24" viewBox="0 0 24 24" fill="none" xmlns="http://www.w3.org/2000/svg">
<path d="M14.5321 20.4287C15.3909 20.9828 16.4143 21.2242 17.4302 21.1125C18.4461 21.0007 19.3925 20.5426 20.1103 19.8151L20.7379 19.2015C21.013 18.9201 21.1671 18.5422 21.1671 18.1486C21.1671 17.7551 21.013 17.3772 20.7379 17.0958L18.0743 14.4601C17.7952 14.1858 17.4196 14.0321 17.0284 14.0321C16.6371 14.0321 16.2615 14.1858 15.9825 14.4601V14.4601C15.7011 14.7352 15.3231 14.8892 14.9296 14.8892C14.536 14.8892 14.1581 14.7352 13.8767 14.4601L9.69304 10.2764C9.55348 10.1389 9.44265 9.97496 9.36701 9.79421C9.29136 9.61346 9.2524 9.41947 9.2524 9.22353C9.2524 9.02758 9.29136 8.83359 9.36701 8.65284C9.44265 8.47209 9.55348 8.30818 9.69304 8.17064V8.17064C9.96729 7.89159 10.121 7.51598 10.121 7.12473C10.121 6.73347 9.96729 6.35787 9.69304 6.07881L7.0434 3.42917C6.76199 3.15405 6.38407 3 5.99051 3C5.59696 3 5.21904 3.15405 4.93763 3.42917L4.32402 4.05672C3.59655 4.77455 3.13843 5.72098 3.02668 6.73686C2.91493 7.75274 3.15638 8.77612 3.71042 9.63492C6.5972 13.8893 10.2703 17.5529 14.5321 20.4287V20.4287Z" stroke="#020305" stroke-width="1.4" stroke-linecap="round" stroke-linejoin="round"/>
</svg>
