<svg width="18" height="18" viewBox="0 0 18 18" fill="none" xmlns="http://www.w3.org/2000/svg">
<path d="M12.4902 2.51758H14.4847C14.7492 2.51758 15.0029 2.62265 15.1899 2.80967C15.3769 2.99669 15.482 3.25034 15.482 3.51483V5.50934" stroke="#020305" stroke-width="1.4" stroke-linecap="round" stroke-linejoin="round"/>
<path d="M2.51855 5.50934V3.51483C2.51855 3.25034 2.62362 2.99669 2.81064 2.80967C2.99766 2.62265 3.25132 2.51758 3.51581 2.51758H5.51031" stroke="#020305" stroke-width="1.4" stroke-linecap="round" stroke-linejoin="round"/>
<path d="M12.4902 15.482H14.4847C14.7492 15.482 15.0029 15.3769 15.1899 15.1899C15.3769 15.0029 15.482 14.7492 15.482 14.4847V12.4902" stroke="#020305" stroke-width="1.4" stroke-linecap="round" stroke-linejoin="round"/>
<path d="M2.51855 12.4902V14.4847C2.51855 14.7492 2.62362 15.0029 2.81064 15.1899C2.99766 15.3769 3.25132 15.482 3.51581 15.482H5.51031" stroke="#020305" stroke-width="1.4" stroke-linecap="round" stroke-linejoin="round"/>
<path d="M9.00113 12.4901C10.9288 12.4901 12.4915 10.9274 12.4915 8.99966C12.4915 7.07198 10.9288 5.50928 9.00113 5.50928C7.07344 5.50928 5.51074 7.07198 5.51074 8.99966C5.51074 10.9274 7.07344 12.4901 9.00113 12.4901Z" stroke="#020305" stroke-width="1.4" stroke-linecap="round" stroke-linejoin="round"/>
</svg>
