<svg width="24" height="24" viewBox="0 0 24 24" fill="none" xmlns="http://www.w3.org/2000/svg">
<path d="M16.6533 3.35693H19.3127C19.6653 3.35693 20.0035 3.49702 20.2529 3.74639C20.5022 3.99575 20.6423 4.33395 20.6423 4.6866V7.34595" stroke="#020305" stroke-width="1.4" stroke-linecap="round" stroke-linejoin="round"/>
<path d="M3.35742 7.34595V4.6866C3.35742 4.33395 3.49751 3.99575 3.74687 3.74639C3.99624 3.49702 4.33444 3.35693 4.68709 3.35693H7.34643" stroke="#020305" stroke-width="1.4" stroke-linecap="round" stroke-linejoin="round"/>
<path d="M16.6533 20.6428H19.3127C19.6653 20.6428 20.0035 20.5027 20.2529 20.2534C20.5022 20.004 20.6423 19.6658 20.6423 19.3132V16.6538" stroke="#020305" stroke-width="1.4" stroke-linecap="round" stroke-linejoin="round"/>
<path d="M3.35742 16.6538V19.3132C3.35742 19.6658 3.49751 20.004 3.74687 20.2534C3.99624 20.5027 4.33444 20.6428 4.68709 20.6428H7.34643" stroke="#020305" stroke-width="1.4" stroke-linecap="round" stroke-linejoin="round"/>
<path d="M12.0005 16.6534C14.5708 16.6534 16.6544 14.5698 16.6544 11.9996C16.6544 9.4293 14.5708 7.3457 12.0005 7.3457C9.43028 7.3457 7.34668 9.4293 7.34668 11.9996C7.34668 14.5698 9.43028 16.6534 12.0005 16.6534Z" stroke="#020305" stroke-width="1.4" stroke-linecap="round" stroke-linejoin="round"/>
</svg>
