<svg width="24" height="24" viewBox="0 0 24 24" fill="none" xmlns="http://www.w3.org/2000/svg">
<path d="M19.6663 8.16699H4.38886C3.62181 8.16699 3 8.78881 3 9.55585V19.2779C3 20.0449 3.62181 20.6667 4.38886 20.6667H19.6663C20.4334 20.6667 21.0552 20.0449 21.0552 19.2779V9.55585C21.0552 8.78881 20.4334 8.16699 19.6663 8.16699Z" stroke="#020305" stroke-width="1.4" stroke-linecap="round" stroke-linejoin="round"/>
<path d="M3 13.7222H21.0552" stroke="#020305" stroke-width="1.4" stroke-linecap="round" stroke-linejoin="round"/>
<path d="M12.0273 12.333V15.1107" stroke="#020305" stroke-width="1.4" stroke-linecap="round" stroke-linejoin="round"/>
<path d="M16.1945 8.16658C16.1945 7.06153 15.7555 6.00175 14.9741 5.22036C14.1927 4.43898 13.133 4 12.0279 4V4C10.9229 4 9.86308 4.43898 9.08169 5.22036C8.30031 6.00175 7.86133 7.06153 7.86133 8.16658" stroke="#020305" stroke-width="1.4" stroke-linecap="round" stroke-linejoin="round"/>
</svg>
