<svg width="24" height="24" viewBox="0 0 24 24" fill="none" xmlns="http://www.w3.org/2000/svg">
<path fill-rule="evenodd" clip-rule="evenodd" d="M21.7312 4.76884C22.2234 5.26113 22.5 5.92881 22.5 6.625V17.875C22.5 18.5712 22.2234 19.2389 21.7312 19.7312C21.2389 20.2234 20.5712 20.5 19.875 20.5H7.125C6.42881 20.5 5.76113 20.2234 5.26884 19.7312C4.77656 19.2389 4.5 18.5712 4.5 17.875V16C4.5 15.5858 4.83579 15.25 5.25 15.25C5.66421 15.25 6 15.5858 6 16V17.875C6 18.1734 6.11853 18.4595 6.32951 18.6705C6.54048 18.8815 6.82663 19 7.125 19H19.875C20.1734 19 20.4595 18.8815 20.6705 18.6705C20.8815 18.4595 21 18.1734 21 17.875V6.625C21 6.32663 20.8815 6.04048 20.6705 5.8295C20.4595 5.61853 20.1734 5.5 19.875 5.5H7.125C6.82663 5.5 6.54048 5.61853 6.32951 5.8295C6.11853 6.04048 6 6.32663 6 6.625V8.5C6 8.91421 5.66421 9.25 5.25 9.25C4.83579 9.25 4.5 8.91421 4.5 8.5V6.625C4.5 5.92881 4.77656 5.26113 5.26884 4.76884C5.76113 4.27656 6.42881 4 7.125 4H19.875C20.5712 4 21.2389 4.27656 21.7312 4.76884ZM14.0303 11.7197C14.3232 12.0126 14.3232 12.4874 14.0303 12.7803L10.2803 16.5303C9.98744 16.8232 9.51256 16.8232 9.21967 16.5303C8.92678 16.2374 8.92678 15.7626 9.21967 15.4697L11.6893 13H2.25C1.83579 13 1.5 12.6642 1.5 12.25C1.5 11.8358 1.83579 11.5 2.25 11.5H11.6893L9.21967 9.03033C8.92678 8.73744 8.92678 8.26256 9.21967 7.96967C9.51256 7.67678 9.98744 7.67678 10.2803 7.96967L14.0303 11.7197Z" fill="#373737"/>
</svg>
