<svg width="24" height="24" viewBox="0 0 24 24" fill="none" xmlns="http://www.w3.org/2000/svg">
<path d="M6.14007 15.2113C7.87429 15.2113 9.28015 13.8054 9.28015 12.0712C9.28015 10.337 7.87429 8.93115 6.14007 8.93115C4.40586 8.93115 3 10.337 3 12.0712C3 13.8054 4.40586 15.2113 6.14007 15.2113Z" stroke="#020305" stroke-width="1.39559" stroke-linecap="round" stroke-linejoin="round"/>
<path d="M18.0024 21.1425C19.7366 21.1425 21.1425 19.7366 21.1425 18.0024C21.1425 16.2682 19.7366 14.8623 18.0024 14.8623C16.2682 14.8623 14.8623 16.2682 14.8623 18.0024C14.8623 19.7366 16.2682 21.1425 18.0024 21.1425Z" stroke="#020305" stroke-width="1.39559" stroke-linecap="round" stroke-linejoin="round"/>
<path d="M18.0024 9.28015C19.7366 9.28015 21.1425 7.87429 21.1425 6.14007C21.1425 4.40586 19.7366 3 18.0024 3C16.2682 3 14.8623 4.40586 14.8623 6.14007C14.8623 7.87429 16.2682 9.28015 18.0024 9.28015Z" stroke="#020305" stroke-width="1.39559" stroke-linecap="round" stroke-linejoin="round"/>
<path d="M8.94531 10.6757L15.1975 7.53564" stroke="#020305" stroke-width="1.39559" stroke-linecap="round" stroke-linejoin="round"/>
<path d="M8.94531 13.4668L15.1975 16.6069" stroke="#020305" stroke-width="1.39559" stroke-linecap="round" stroke-linejoin="round"/>
</svg>
