<svg width="24" height="24" viewBox="0 0 24 24" fill="none" xmlns="http://www.w3.org/2000/svg">
<path d="M12.186 21.08C11.8652 21.2038 11.5098 21.2038 11.189 21.08V21.08C8.68603 20.1191 6.53341 18.4214 5.01552 16.2113C3.49762 14.0012 2.68588 11.3827 2.6875 8.70155V4.5477C2.6875 4.18048 2.83338 3.8283 3.09305 3.56863C3.35271 3.30896 3.70489 3.16309 4.07212 3.16309H19.3029C19.6701 3.16309 20.0223 3.30896 20.282 3.56863C20.5416 3.8283 20.6875 4.18048 20.6875 4.5477V8.70155C20.6891 11.3827 19.8774 14.0012 18.3595 16.2113C16.8416 18.4214 14.689 20.1191 12.186 21.08V21.08Z" stroke="#020305" stroke-width="1.4" stroke-linecap="round" stroke-linejoin="round"/>
</svg>
