<svg width="24" height="24" viewBox="0 0 24 24" fill="none" xmlns="http://www.w3.org/2000/svg">
<path d="M7.30566 13.8776L10.8218 19.498C10.9581 19.7201 11.1496 19.9032 11.3776 20.0293C11.6057 20.1555 11.8625 20.2204 12.1231 20.2178C12.3283 20.2252 12.533 20.1914 12.7249 20.1184C12.9169 20.0453 13.0922 19.9346 13.2406 19.7926C13.389 19.6507 13.5075 19.4804 13.589 19.2919C13.6705 19.1034 13.7133 18.9004 13.715 18.6951V14.6667H19.7922C20.0167 14.6594 20.2372 14.6047 20.4391 14.5061C20.641 14.4075 20.8197 14.2673 20.9636 14.0947C21.1074 13.9221 21.2131 13.721 21.2736 13.5047C21.3342 13.2883 21.3483 13.0616 21.3149 12.8394L20.2075 5.69635C20.1602 5.31461 19.9752 4.96326 19.6872 4.70834C19.3991 4.45343 19.0279 4.3125 18.6432 4.31203H9.5621C9.1298 4.31034 8.70312 4.4099 8.31621 4.60274L7.31951 5.10109" stroke="#020305" stroke-width="1.4" stroke-linecap="round" stroke-linejoin="round"/>
<path d="M7.30566 13.8776V5.14258" stroke="#020305" stroke-width="1.4" stroke-linecap="round" stroke-linejoin="round"/>
<path d="M4.02517 5.14258H7.30599V13.8776H4.02517C3.84159 13.8776 3.66554 13.8047 3.53574 13.6749C3.40593 13.5451 3.33301 13.369 3.33301 13.1854V5.83474C3.33301 5.65116 3.40593 5.47511 3.53574 5.34531C3.66554 5.2155 3.84159 5.14258 4.02517 5.14258V5.14258Z" stroke="#020305" stroke-width="1.4" stroke-linecap="round" stroke-linejoin="round"/>
</svg>
