<svg width="24" height="24" viewBox="0 0 24 24" fill="none" xmlns="http://www.w3.org/2000/svg">
<path d="M6.92383 10.7831L10.4549 5.13894C10.5917 4.91585 10.784 4.73201 11.013 4.60533C11.2421 4.47864 11.5 4.41343 11.7617 4.41604V4.41604C11.9678 4.4086 12.1733 4.44256 12.366 4.5159C12.5588 4.58924 12.7349 4.70047 12.884 4.84303C13.033 4.98559 13.1519 5.15658 13.2338 5.3459C13.3156 5.53521 13.3587 5.73901 13.3604 5.94525V9.99068H19.4633C19.6888 9.99799 19.9102 10.053 20.1129 10.152C20.3157 10.251 20.4952 10.3917 20.6396 10.5651C20.7841 10.7384 20.8902 10.9404 20.951 11.1576C21.0118 11.3749 21.026 11.6026 20.9925 11.8257L19.8803 18.9991C19.8329 19.3824 19.6471 19.7353 19.3578 19.9913C19.0685 20.2473 18.6957 20.3888 18.3094 20.3893H9.18983C8.7557 20.391 8.32721 20.291 7.93866 20.0973L6.93773 19.5968" stroke="#020305" stroke-width="1.4" stroke-linecap="round" stroke-linejoin="round"/>
<path d="M6.92383 10.7832V19.5553" stroke="#020305" stroke-width="1.4" stroke-linecap="round" stroke-linejoin="round"/>
<path d="M3.62869 10.7832H6.92342V19.5553H3.62869C3.44434 19.5553 3.26754 19.482 3.13718 19.3517C3.00683 19.2213 2.93359 19.0445 2.93359 18.8602V11.4783C2.93359 11.2939 3.00683 11.1171 3.13718 10.9868C3.26754 10.8564 3.44434 10.7832 3.62869 10.7832V10.7832Z" stroke="#020305" stroke-width="1.4" stroke-linecap="round" stroke-linejoin="round"/>
</svg>
