<svg width="24" height="24" viewBox="0 0 24 24" fill="none" xmlns="http://www.w3.org/2000/svg">
<path fill-rule="evenodd" clip-rule="evenodd" d="M6.54492 3.48955C6.54492 3.10295 6.85832 2.78955 7.24492 2.78955H16.9371C17.3237 2.78955 17.6371 3.10295 17.6371 3.48955V7.64333C17.6371 9.11425 17.0528 10.5249 16.0127 11.565C14.9726 12.6051 13.5619 13.1894 12.091 13.1894C10.6201 13.1894 9.20942 12.6051 8.16933 11.565C7.12924 10.5249 6.54492 9.11425 6.54492 7.64333V3.48955ZM7.94492 4.18955V7.64333C7.94492 8.74294 8.38174 9.79751 9.15928 10.5751C9.93682 11.3526 10.9914 11.7894 12.091 11.7894C13.1906 11.7894 14.2452 11.3526 15.0227 10.5751C15.8003 9.79751 16.2371 8.74294 16.2371 7.64333V4.18955H7.94492Z" fill="#020305"/>
<path fill-rule="evenodd" clip-rule="evenodd" d="M8.16933 13.414C9.20942 12.3739 10.6201 11.7896 12.091 11.7896C13.5619 11.7896 14.9726 12.3739 16.0127 13.414C17.0528 14.4541 17.6371 15.8647 17.6371 17.3356V21.4894C17.6371 21.876 17.3237 22.1894 16.9371 22.1894H7.24492C6.85832 22.1894 6.54492 21.876 6.54492 21.4894V17.3356C6.54492 15.8647 7.12924 14.4541 8.16933 13.414ZM12.091 13.1896C10.9914 13.1896 9.93682 13.6264 9.15928 14.4039C8.38174 15.1815 7.94492 16.236 7.94492 17.3356V20.7894H16.2371V17.3356C16.2371 16.236 15.8003 15.1815 15.0227 14.4039C14.2452 13.6264 13.1906 13.1896 12.091 13.1896Z" fill="#020305"/>
<path fill-rule="evenodd" clip-rule="evenodd" d="M3.77539 3.48955C3.77539 3.10295 4.08879 2.78955 4.47539 2.78955H19.7059C20.0925 2.78955 20.4059 3.10295 20.4059 3.48955C20.4059 3.87615 20.0925 4.18955 19.7059 4.18955H4.47539C4.08879 4.18955 3.77539 3.87615 3.77539 3.48955Z" fill="#020305"/>
<path fill-rule="evenodd" clip-rule="evenodd" d="M3.77539 21.4891C3.77539 21.1025 4.08879 20.7891 4.47539 20.7891H19.7059C20.0925 20.7891 20.4059 21.1025 20.4059 21.4891C20.4059 21.8757 20.0925 22.1891 19.7059 22.1891H4.47539C4.08879 22.1891 3.77539 21.8757 3.77539 21.4891Z" fill="#020305"/>
</svg>
