<svg width="24" height="24" viewBox="0 0 24 24" fill="none" xmlns="http://www.w3.org/2000/svg">
<path d="M3 6.41748H20.6701" stroke="#020305" stroke-width="1.4" stroke-linecap="round" stroke-linejoin="round"/>
<path d="M5.20898 6.41748H18.4616V19.6701C18.4616 20.0606 18.3064 20.4352 18.0303 20.7113C17.7541 20.9875 17.3796 21.1426 16.9891 21.1426H6.6815C6.29096 21.1426 5.91642 20.9875 5.64027 20.7113C5.36412 20.4352 5.20898 20.0606 5.20898 19.6701V6.41748Z" stroke="#020305" stroke-width="1.4" stroke-linecap="round" stroke-linejoin="round"/>
<path d="M8.15332 6.41753V5.68128C8.15332 4.70494 8.54117 3.7686 9.23154 3.07822C9.92192 2.38785 10.8583 2 11.8346 2C12.8109 2 13.7473 2.38785 14.4377 3.07822C15.128 3.7686 15.5159 4.70494 15.5159 5.68128V6.41753" stroke="#020305" stroke-width="1.4" stroke-linecap="round" stroke-linejoin="round"/>
</svg>
