<svg width="24" height="24" viewBox="0 0 24 24" fill="none" xmlns="http://www.w3.org/2000/svg">
<path d="M8.90235 9.59426C10.6229 9.59426 12.0176 8.19951 12.0176 6.47901C12.0176 4.75851 10.6229 3.36377 8.90235 3.36377C7.18185 3.36377 5.78711 4.75851 5.78711 6.47901C5.78711 8.19951 7.18185 9.59426 8.90235 9.59426Z" stroke="#020305" stroke-width="1.4" stroke-linecap="round" stroke-linejoin="round"/>
<path d="M10.2869 11.8234C9.37396 11.6126 8.42514 11.6109 7.51142 11.8185C6.5977 12.0261 5.74272 12.4375 5.0104 13.022C4.27808 13.6065 3.68736 14.349 3.28241 15.194C2.87747 16.039 2.66876 16.9646 2.67191 17.9016V19.9784H10.2869" stroke="#020305" stroke-width="1.4" stroke-linecap="round" stroke-linejoin="round"/>
<path d="M16.7528 21.3214C16.6007 21.3764 16.4341 21.3764 16.282 21.3214C15.1273 20.864 14.1365 20.0704 13.4379 19.0435C12.7394 18.0166 12.3651 16.8037 12.3637 15.5617V13.7479C12.3576 13.6554 12.3713 13.5627 12.4039 13.4759C12.4366 13.3891 12.4874 13.3103 12.5529 13.2448C12.6184 13.1793 12.6972 13.1285 12.784 13.0958C12.8708 13.0632 12.9635 13.0495 13.056 13.0556H19.9788C20.0713 13.0495 20.164 13.0632 20.2508 13.0958C20.3375 13.1285 20.4163 13.1793 20.4819 13.2448C20.5474 13.3103 20.5982 13.3891 20.6308 13.4759C20.6634 13.5627 20.6772 13.6554 20.671 13.7479V15.5617C20.6696 16.8037 20.2954 18.0166 19.5968 19.0435C18.8982 20.0704 17.9074 20.864 16.7528 21.3214V21.3214Z" stroke="#020305" stroke-width="1.4" stroke-linecap="round" stroke-linejoin="round"/>
</svg>
