<svg width="24" height="24" viewBox="0 0 24 24" fill="none" xmlns="http://www.w3.org/2000/svg">
<path d="M21.1436 13.4668L15.3936 21.1427L11.5557 18.2677" stroke="#020305" stroke-width="1.39563" stroke-linecap="round" stroke-linejoin="round"/>
<path d="M9.28078 9.28032C11.015 9.28032 12.4209 7.87442 12.4209 6.14016C12.4209 4.4059 11.015 3 9.28078 3C7.54652 3 6.14062 4.4059 6.14062 6.14016C6.14062 7.87442 7.54652 9.28032 9.28078 9.28032Z" stroke="#020305" stroke-width="1.39563" stroke-linecap="round" stroke-linejoin="round"/>
<path d="M6.48906 19.7476H3V17.6542C3.00109 16.4129 3.37002 15.1997 4.06018 14.1679C4.75035 13.1361 5.73079 12.332 6.87769 11.8571C8.02459 11.3823 9.28649 11.2579 10.504 11.4998C11.7216 11.7416 12.8401 12.3389 13.7184 13.2161" stroke="#020305" stroke-width="1.39563" stroke-linecap="round" stroke-linejoin="round"/>
</svg>
