<svg width="24" height="24" viewBox="0 0 24 24" fill="none" xmlns="http://www.w3.org/2000/svg">
<path d="M8.96129 8.82834C10.6728 8.82834 12.0603 7.44088 12.0603 5.72935C12.0603 4.01783 10.6728 2.63037 8.96129 2.63037C7.24977 2.63037 5.8623 4.01783 5.8623 5.72935C5.8623 7.44088 7.24977 8.82834 8.96129 8.82834Z" stroke="#020305" stroke-width="1.4" stroke-linecap="round" stroke-linejoin="round"/>
<path d="M16.1912 20.5356C18.6634 20.5356 20.6675 18.5315 20.6675 16.0593C20.6675 13.5871 18.6634 11.583 16.1912 11.583C13.719 11.583 11.7148 13.5871 11.7148 16.0593C11.7148 18.5315 13.719 20.5356 16.1912 20.5356Z" stroke="#020305" stroke-width="1.4" stroke-linecap="round" stroke-linejoin="round"/>
<path d="M13.0234 19.2273L19.3591 12.8916" stroke="#020305" stroke-width="1.4" stroke-linecap="round" stroke-linejoin="round"/>
<path d="M10.338 11.0457C9.4298 10.836 8.48594 10.8344 7.57698 11.0408C6.66803 11.2473 5.81751 11.6566 5.08901 12.2381C4.36051 12.8195 3.77288 13.5582 3.37005 14.3987C2.96721 15.2393 2.7596 16.1601 2.76273 17.0922V19.1582H8.27203" stroke="#020305" stroke-width="1.4" stroke-linecap="round" stroke-linejoin="round"/>
</svg>
