<svg width="24" height="24" viewBox="0 0 24 24" fill="none" xmlns="http://www.w3.org/2000/svg">
<path d="M9.28078 9.28032C11.015 9.28032 12.4209 7.87442 12.4209 6.14016C12.4209 4.4059 11.015 3 9.28078 3C7.54652 3 6.14062 4.4059 6.14062 6.14016C6.14062 7.87442 7.54652 9.28032 9.28078 9.28032Z" stroke="#020305" stroke-width="1.39563" stroke-linecap="round" stroke-linejoin="round"/>
<path d="M9.28032 19.7473H3V17.6539C2.99966 16.554 3.28816 15.4733 3.83665 14.52C4.38514 13.5666 5.17437 12.7741 6.12538 12.2215C7.0764 11.669 8.15583 11.3759 9.25569 11.3716C10.3555 11.3673 11.4372 11.6519 12.3926 12.197" stroke="#020305" stroke-width="1.39563" stroke-linecap="round" stroke-linejoin="round"/>
<path d="M21.143 15.2256L15.2256 21.143" stroke="#020305" stroke-width="1.39563" stroke-linecap="round" stroke-linejoin="round"/>
<path d="M15.2256 15.2256L21.143 21.143" stroke="#020305" stroke-width="1.39563" stroke-linecap="round" stroke-linejoin="round"/>
</svg>
