<svg width="24" height="24" viewBox="0 0 24 24" fill="none" xmlns="http://www.w3.org/2000/svg">
<path d="M18.5188 9.46973C19.0518 9.94661 19.5006 10.4095 19.8372 10.7741C20.0698 11.0319 20.1986 11.3667 20.1986 11.7139C20.1986 12.061 20.0698 12.3959 19.8372 12.6536C18.3645 14.2385 15.0123 17.3242 11.0991 17.3242H10.5381" stroke="#020305" stroke-width="1.40258" stroke-linecap="round" stroke-linejoin="round"/>
<path d="M6.70937 16.1044C5.08467 15.1945 3.61664 14.0295 2.36136 12.6541C2.12876 12.3963 2 12.0615 2 11.7143C2 11.3672 2.12876 11.0323 2.36136 10.7746C3.83407 9.18969 7.18625 6.104 11.0995 6.104C12.642 6.13624 14.1516 6.55586 15.4896 7.32425" stroke="#020305" stroke-width="1.40258" stroke-linecap="round" stroke-linejoin="round"/>
<path d="M18.8142 4L3.38574 19.4284" stroke="#020305" stroke-width="1.40258" stroke-linecap="round" stroke-linejoin="round"/>
<path d="M9.12245 13.692C8.59565 13.1683 8.29805 12.4571 8.29492 11.7143C8.29492 10.9704 8.59047 10.2569 9.11654 9.73079C9.64261 9.20472 10.3561 8.90918 11.1001 8.90918C11.8429 8.91231 12.5541 9.20991 13.0777 9.7367" stroke="#020305" stroke-width="1.40258" stroke-linecap="round" stroke-linejoin="round"/>
<path d="M13.5399 13.1172C13.2902 13.544 12.9321 13.8972 12.502 14.1411" stroke="#020305" stroke-width="1.40258" stroke-linecap="round" stroke-linejoin="round"/>
</svg>
