<svg width="24" height="24" viewBox="0 0 24 24" fill="none" xmlns="http://www.w3.org/2000/svg">
<path d="M21.0449 10.6977C21.275 10.9526 21.4023 11.2838 21.4023 11.6271C21.4023 11.9705 21.275 12.3017 21.0449 12.5566C19.5883 14.1242 16.2728 17.1762 12.4023 17.1762C8.53191 17.1762 5.21637 14.1242 3.75975 12.5566C3.52969 12.3017 3.40234 11.9705 3.40234 11.6271C3.40234 11.2838 3.52969 10.9526 3.75975 10.6977C5.21637 9.13008 8.53191 6.07812 12.4023 6.07812C16.2728 6.07812 19.5883 9.13008 21.0449 10.6977Z" stroke="#020305" stroke-width="1.4" stroke-linecap="round" stroke-linejoin="round"/>
<path d="M12.4024 14.402C13.9348 14.402 15.1769 13.1599 15.1769 11.6275C15.1769 10.0952 13.9348 8.85303 12.4024 8.85303C10.8701 8.85303 9.62793 10.0952 9.62793 11.6275C9.62793 13.1599 10.8701 14.402 12.4024 14.402Z" stroke="#020305" stroke-width="1.4" stroke-linecap="round" stroke-linejoin="round"/>
</svg>
