<svg width="24" height="24" viewBox="0 0 24 24" fill="none" xmlns="http://www.w3.org/2000/svg">
<path d="M2.63965 14.1387H5.44127C6.37006 14.1387 7.26081 14.5076 7.91757 15.1644C8.57433 15.8211 8.94329 16.7119 8.94329 17.6407" stroke="#020305" stroke-width="1.40081" stroke-linecap="round" stroke-linejoin="round"/>
<path d="M4.74086 17.6406H11.7449C12.4879 17.6406 13.2005 17.9358 13.7259 18.4612C14.2514 18.9866 14.5465 19.6992 14.5465 20.4422C14.5465 20.628 14.4727 20.8062 14.3414 20.9375C14.21 21.0689 14.0319 21.1426 13.8461 21.1426H2.63965" stroke="#020305" stroke-width="1.40081" stroke-linecap="round" stroke-linejoin="round"/>
<path d="M14.1962 14.1389L8.59297 8.9559C5.5392 5.88813 9.99378 -0.0513018 14.1962 4.75347C18.3986 -0.0372937 22.8952 5.90214 19.7994 8.9559L14.1962 14.1389Z" stroke="#020305" stroke-width="1.40081" stroke-linecap="round" stroke-linejoin="round"/>
</svg>
