<svg width="138" height="34" viewBox="0 0 138 34" fill="none" xmlns="http://www.w3.org/2000/svg">
<path d="M14.9314 11.5862C14.9299 12.2378 14.6974 12.8679 14.2751 13.3642C13.8529 13.8606 13.2683 14.1911 12.6253 14.2971C11.9823 14.403 11.3226 14.2775 10.7634 13.9428C10.2042 13.6081 9.78186 13.086 9.5714 12.4693C9.36093 11.8525 9.37601 11.1811 9.61394 10.5745C9.85188 9.96778 10.2973 9.46514 10.8709 9.15591C11.4445 8.84667 12.1092 8.75089 12.7468 8.88558C13.3844 9.02027 13.9536 9.37671 14.3531 9.89153C14.7293 10.3762 14.9328 10.9726 14.9314 11.5862Z" fill="#2F4786"/>
<path d="M19.597 4.67184L15.9514 8.31743C15.8707 8.39898 15.7612 8.44556 15.6465 8.44715C15.5318 8.44873 15.4211 8.40519 15.3382 8.32591C14.1233 7.14919 12.2222 6.69058 10.6281 7.28158C8.90384 7.91707 7.69852 9.78753 7.89553 11.6167C8.03851 12.9353 8.82334 14.1025 9.73739 15.0653L9.76387 15.0939C10.4937 15.8522 10.8984 16.8656 10.8917 17.918C10.8849 18.9704 10.4673 19.9786 9.72786 20.7275L8.66871 21.7951C8.59014 21.8743 8.48448 21.9207 8.37303 21.9251C8.26157 21.9294 8.15263 21.8913 8.06817 21.8184C6.6309 20.5803 5.20105 19.3252 3.95654 17.8932C2.62201 16.3596 1.49826 14.6046 0.929493 12.6525C0.290012 10.4155 0.419804 8.02851 1.29808 5.87397C1.51672 5.34116 1.78256 4.82896 2.09244 4.3435C2.24708 4.10096 2.41019 3.86476 2.5913 3.63811C2.79678 3.37438 3.02449 3.13077 3.25327 2.88399L3.56466 2.55036C3.60491 2.50673 3.65357 2.47168 3.70771 2.44732C3.76184 2.42296 3.82034 2.40979 3.8797 2.4086C3.93905 2.40741 3.99803 2.41823 4.0531 2.44041C4.10817 2.46258 4.15818 2.49566 4.20015 2.53765L4.99769 3.33095C5.06715 3.40037 5.16021 3.4411 5.25834 3.44502C5.35647 3.44895 5.45248 3.41579 5.52727 3.35214C7.52996 1.67679 10.0905 0.817771 12.6984 0.946349C15.3063 1.07493 17.7699 2.18166 19.5981 4.04588C19.6394 4.08691 19.6721 4.13572 19.6944 4.18948C19.7167 4.24323 19.7281 4.30088 19.728 4.35908C19.7279 4.41728 19.7163 4.47488 19.6938 4.52857C19.6713 4.58225 19.6384 4.63094 19.597 4.67184Z" fill="#2F4786"/>
<path d="M10.6602 22.701C10.6605 22.1917 10.8058 21.6931 11.079 21.2634C11.3522 20.8337 11.742 20.4906 12.203 20.2742C12.664 20.0578 13.177 19.9771 13.6821 20.0415C14.1873 20.1059 14.6637 20.3127 15.0556 20.6377C15.1847 20.7444 15.3031 20.8632 15.4094 20.9926C15.684 21.3242 15.8747 21.717 15.9655 22.1378C16.0563 22.5587 16.0444 22.9952 15.931 23.4105C15.8176 23.8258 15.6058 24.2077 15.3137 24.524C15.0216 24.8402 14.6576 25.0815 14.2526 25.2275C13.8476 25.3735 13.4134 25.4198 12.9866 25.3626C12.5599 25.3054 12.1532 25.1464 11.8009 24.8989C11.4486 24.6515 11.1611 24.3229 10.9625 23.9409C10.764 23.5589 10.6602 23.1347 10.6602 22.7041V22.701Z" fill="#2F4786"/>
<path d="M5.93668 29.332L9.58333 25.6874C9.66384 25.6061 9.77303 25.5595 9.88748 25.5577C10.0019 25.5559 10.1125 25.5991 10.1955 25.6779C11.4135 26.8557 13.3126 27.3143 14.9024 26.7233C16.6277 26.0878 17.8331 24.2173 17.635 22.3882C17.4931 21.0695 16.7082 19.9024 15.7942 18.9396L15.7667 18.911C15.0373 18.1524 14.633 17.1391 14.6397 16.0869C14.6464 15.0346 15.0637 14.0265 15.8027 13.2774L16.8618 12.2097C16.9402 12.1307 17.0456 12.0843 17.1568 12.0798C17.268 12.0753 17.3768 12.113 17.4613 12.1854C18.8986 13.4246 20.3284 14.6797 21.574 16.1106C22.9085 17.6453 24.0323 19.4003 24.6 21.3523C25.2409 23.5892 25.111 25.9767 24.2314 28.1309C24.0135 28.6639 23.748 29.1761 23.4381 29.6614C23.2824 29.9039 23.1203 30.1401 22.9392 30.3668C22.7274 30.6305 22.506 30.8741 22.2762 31.1209L21.9606 31.4503C21.9203 31.4939 21.8717 31.529 21.8175 31.5533C21.7634 31.5777 21.7049 31.5909 21.6455 31.592C21.5862 31.5932 21.5272 31.5824 21.4721 31.5602C21.4171 31.5381 21.367 31.505 21.3251 31.463L20.5275 30.6697C20.4579 30.6005 20.3649 30.5599 20.2669 30.556C20.1688 30.5521 20.0728 30.5851 19.998 30.6485C17.9969 32.3229 15.4383 33.1817 12.8322 33.0537C10.2262 32.9257 7.76405 31.8204 5.93668 29.9579C5.89546 29.9169 5.86276 29.8681 5.84044 29.8144C5.81813 29.7607 5.80664 29.7031 5.80664 29.645C5.80664 29.5868 5.81813 29.5292 5.84044 29.4755C5.86276 29.4218 5.89546 29.373 5.93668 29.332Z" fill="#2F4786"/>
<path d="M41.0821 26.6027C40.1002 26.2151 39.2444 25.5637 38.6093 24.7204C37.9788 23.8512 37.6372 22.806 37.6328 21.7323H42.2492C42.2786 22.3012 42.5244 22.8374 42.9362 23.231C43.3572 23.5942 43.9006 23.7835 44.4562 23.7604C45.0002 23.7907 45.5383 23.6337 45.9808 23.3157C46.1643 23.1697 46.3105 22.9822 46.4074 22.7687C46.5044 22.5552 46.5493 22.3218 46.5384 22.0875C46.5457 21.8853 46.5108 21.6838 46.4358 21.4958C46.3609 21.3078 46.2476 21.1376 46.1032 20.9958C45.7854 20.6958 45.4154 20.4566 45.0114 20.2899C44.4109 20.0449 43.7975 19.8328 43.1738 19.6547C42.2076 19.3706 41.2639 19.0151 40.3504 18.5912C39.6065 18.2239 38.9612 17.6842 38.4681 17.0171C37.9457 16.3206 37.6846 15.4116 37.6846 14.2901C37.6846 12.6337 38.2846 11.3357 39.4845 10.3961C40.6845 9.45652 42.2531 8.98594 44.1903 8.98438C46.1526 8.98438 47.7337 9.45495 48.9337 10.3961C50.1336 11.3373 50.7768 12.6439 50.863 14.316H46.1573C46.1527 14.0578 46.0938 13.8034 45.9844 13.5695C45.8749 13.3355 45.7174 13.1273 45.522 12.9584C45.0998 12.6173 44.5679 12.4416 44.0256 12.4643C43.5656 12.4422 43.1137 12.5914 42.7574 12.8831C42.5794 13.0573 42.4444 13.2705 42.3628 13.5059C42.2812 13.7412 42.2554 13.9922 42.2873 14.2392C42.3193 14.4862 42.4081 14.7224 42.5468 14.9293C42.6855 15.1361 42.8704 15.308 43.0868 15.4313C43.8966 15.8686 44.7498 16.2203 45.6326 16.4806C46.5905 16.7917 47.5273 17.1642 48.4372 17.5959C49.1692 17.9617 49.8069 18.4915 50.3007 19.1441C50.8262 19.8201 51.0889 20.6907 51.0889 21.7558C51.0995 22.733 50.8309 23.6929 50.3148 24.5228C49.7663 25.3792 48.9887 26.0647 48.0702 26.5015C46.9807 27.0136 45.7865 27.2634 44.5832 27.2309C43.3863 27.2524 42.1969 27.0389 41.0821 26.6027Z" fill="#2F4786"/>
<path d="M56.4552 26.3742C55.3607 25.795 54.4545 24.9149 53.8435 23.8378C53.2158 22.651 52.8886 21.3285 52.8906 19.9859C52.8927 18.6433 53.2239 17.3217 53.8553 16.1369C54.4699 15.0535 55.3808 14.1679 56.4811 13.584C57.6432 12.9815 58.9367 12.6767 60.2457 12.697C61.5459 12.6807 62.8301 12.9853 63.9844 13.584C65.0887 14.1654 66.0038 15.0504 66.622 16.1345C67.2811 17.3069 67.6142 18.6344 67.5866 19.9791C67.6149 21.3246 67.2774 22.6526 66.6102 23.8214C65.9821 24.9069 65.0584 25.7914 63.9467 26.3719C62.7836 26.9717 61.4908 27.2764 60.1821 27.2589C58.8857 27.277 57.6051 26.973 56.4552 26.3742ZM62.3162 22.5932C62.8997 21.983 63.1915 21.1124 63.1915 19.9815C63.1915 18.8505 62.9068 17.9792 62.3374 17.3674C62.0689 17.0787 61.7441 16.8481 61.383 16.6899C61.0219 16.5316 60.6322 16.4491 60.238 16.4473C59.8437 16.4456 59.4533 16.5246 59.0908 16.6796C58.7284 16.8346 58.4015 17.0623 58.1304 17.3486C57.572 17.9494 57.2928 18.8246 57.2928 19.9744C57.2928 21.1242 57.5681 21.9947 58.1187 22.5861C58.3753 22.8806 58.6937 23.1151 59.0511 23.2729C59.4085 23.4306 59.7963 23.5078 60.1868 23.499C60.5836 23.5053 60.9773 23.4279 61.3422 23.2718C61.7071 23.1157 62.0349 22.8845 62.3044 22.5932H62.3162Z" fill="#2F4786"/>
<path d="M69.9394 16.1255C70.5124 15.0515 71.3866 14.1683 72.4547 13.5844C73.5892 12.9782 74.8602 12.6728 76.1463 12.6974C77.9204 12.6974 79.4043 13.1625 80.598 14.0926C81.7917 15.0228 82.576 16.3334 82.9509 18.0243H78.3369C77.9463 16.942 77.1957 16.4008 76.0781 16.4008C75.7097 16.3893 75.3441 16.4676 75.0129 16.6292C74.6816 16.7907 74.3947 17.0305 74.177 17.3278C73.7064 17.9443 73.4711 18.8282 73.4711 19.9795C73.4711 21.1309 73.7064 22.014 74.177 22.6289C74.3947 22.9262 74.6816 23.166 75.0129 23.3276C75.3441 23.4891 75.7097 23.5675 76.0781 23.5559C77.1957 23.5559 77.9463 23.0147 78.3369 21.9324H82.9532C82.5814 23.5888 81.7972 24.8908 80.6003 25.8382C79.4035 26.7856 77.9235 27.2562 76.1605 27.2499C74.8706 27.2805 73.5945 26.9791 72.4547 26.3746C71.3885 25.7912 70.5153 24.9098 69.9418 23.8382C69.3505 22.6387 69.043 21.3193 69.043 19.9819C69.043 18.6445 69.3505 17.3251 69.9418 16.1255H69.9394Z" fill="#2F4786"/>
<path d="M85.5687 10.7608C85.336 10.5521 85.151 10.2957 85.0263 10.0091C84.9017 9.72239 84.8403 9.41221 84.8464 9.09968C84.8384 8.78308 84.8988 8.46848 85.0235 8.17735C85.1481 7.88621 85.3341 7.62539 85.5687 7.41266C86.0788 6.95305 86.7486 6.71149 87.4346 6.73974C88.1124 6.71429 88.7731 6.95593 89.2745 7.41266C89.5088 7.62568 89.6945 7.88656 89.8191 8.17763C89.9438 8.46869 90.0044 8.78314 89.9968 9.09968C90.0023 9.41213 89.9407 9.72211 89.8161 10.0087C89.6914 10.2953 89.5068 10.5517 89.2745 10.7608C88.7731 11.2175 88.1124 11.4592 87.4346 11.4337C86.7486 11.462 86.0788 11.2204 85.5687 10.7608ZM89.5898 12.9043V27.0615H85.2534V12.9019L89.5898 12.9043Z" fill="#2F4786"/>
<path d="M95.4384 26.3744C94.3437 25.7945 93.4369 24.9147 92.8243 23.838C92.1746 22.6586 91.8498 21.3277 91.8832 19.9816C91.8542 18.6368 92.1874 17.3089 92.8479 16.137C93.4631 15.0533 94.3749 14.1677 95.476 13.5841C96.6419 13.0009 97.9276 12.6972 99.2312 12.6972C100.535 12.6972 101.821 13.0009 102.986 13.5841C104.094 14.1651 105.011 15.051 105.631 16.137C106.266 17.3189 106.598 18.6402 106.596 19.9819C106.594 21.3237 106.258 22.6439 105.619 23.8239C104.99 24.9095 104.066 25.7941 102.953 26.3744C101.79 26.9745 100.498 27.2792 99.1889 27.2614C97.8843 27.2828 96.5951 26.9779 95.4384 26.3744ZM101.299 22.5933C101.883 21.9831 102.175 21.1126 102.175 19.9816C102.175 18.8507 101.891 17.9793 101.323 17.3676C101.054 17.0805 100.73 16.8515 100.369 16.6945C100.009 16.5376 99.6199 16.456 99.2267 16.4549C98.8335 16.4538 98.4443 16.5332 98.0829 16.6881C97.7215 16.843 97.3957 17.0703 97.1254 17.3558C96.567 17.9566 96.2878 18.8318 96.2878 19.9816C96.2878 21.1314 96.5631 22.0019 97.1136 22.5933C97.37 22.8877 97.6879 23.122 98.0449 23.2798C98.4019 23.4376 98.7892 23.5149 99.1795 23.5062C99.5772 23.512 99.9716 23.4336 100.337 23.2763C100.702 23.119 101.03 22.8862 101.299 22.5933Z" fill="#2F4786"/>
<path d="M122.875 12.9019V27.0591H118.536V25.1298C118.075 25.7741 117.461 26.2932 116.748 26.6403C115.973 27.0268 115.116 27.2228 114.249 27.212C113.246 27.232 112.257 26.9817 111.384 26.4874C110.546 25.998 109.875 25.2696 109.454 24.3957C108.977 23.3894 108.743 22.2854 108.77 21.1722V12.9019H113.082V20.5887C113.082 21.5298 113.328 22.2655 113.819 22.7957C114.073 23.0607 114.382 23.2681 114.723 23.4041C115.064 23.54 115.431 23.6013 115.798 23.5839C116.169 23.6023 116.539 23.5416 116.885 23.4057C117.231 23.2698 117.543 23.0618 117.802 22.7957C118.292 22.2734 118.536 21.5377 118.536 20.5887V12.9019H122.875Z" fill="#2F4786"/>
<path d="M128.454 26.6284C127.556 26.2559 126.769 25.6568 126.172 24.8897C125.62 24.177 125.292 23.3162 125.23 22.4168H129.517C129.539 22.6528 129.612 22.8814 129.73 23.0868C129.848 23.2923 130.009 23.4698 130.202 23.6073C130.636 23.9219 131.163 24.0833 131.699 24.0661C132.14 24.0929 132.579 23.9819 132.955 23.7485C133.093 23.6596 133.206 23.5372 133.284 23.3928C133.361 23.2484 133.401 23.0866 133.4 22.9227C133.401 22.7251 133.341 22.532 133.227 22.3707C133.113 22.2094 132.951 22.088 132.764 22.0239C132.099 21.7501 131.412 21.5336 130.71 21.3768C129.848 21.1857 129.001 20.9349 128.174 20.6262C127.495 20.3642 126.893 19.9373 126.421 19.3839C125.932 18.8177 125.687 18.0522 125.687 17.0875C125.68 16.2967 125.915 15.5227 126.36 14.8688C126.854 14.1615 127.541 13.6111 128.339 13.2829C129.321 12.8724 130.38 12.6736 131.444 12.6994C133.22 12.6994 134.62 13.1394 135.644 14.0194C136.154 14.4585 136.572 14.9938 136.874 15.5945C137.176 16.1952 137.357 16.8497 137.407 17.5205H133.395C133.371 17.2912 133.301 17.069 133.19 16.867C133.079 16.665 132.929 16.4872 132.748 16.344C132.334 16.0395 131.828 15.8866 131.315 15.9111C130.902 15.8834 130.491 15.9854 130.139 16.2028C130.009 16.2917 129.905 16.4115 129.834 16.5512C129.762 16.6909 129.727 16.8461 129.732 17.0028C129.732 17.203 129.795 17.3981 129.911 17.5615C130.027 17.7248 130.19 17.8485 130.379 17.9157C131.028 18.1869 131.704 18.3911 132.395 18.5251C133.265 18.7386 134.121 19.0058 134.957 19.3251C135.633 19.5974 136.23 20.0332 136.696 20.5933C137.195 21.1768 137.453 21.9611 137.47 22.9462C137.478 23.743 137.231 24.5214 136.764 25.1673C136.251 25.8544 135.557 26.3854 134.76 26.7014C133.804 27.0889 132.779 27.2794 131.748 27.2614C130.618 27.2806 129.496 27.065 128.454 26.6284Z" fill="#2F4786"/>
</svg>
