<svg width="24" height="24" viewBox="0 0 24 24" fill="none" xmlns="http://www.w3.org/2000/svg">
<path d="M23.6398 14.9041C22.0381 21.332 15.5257 25.2443 9.09583 23.6401C2.66599 22.036 -1.24444 15.5268 0.359836 9.0983C1.96411 2.66979 8.47327 -1.24425 14.9017 0.360151C21.3301 1.96455 25.2441 8.47406 23.6398 14.9041Z" fill="#F7931A"/>
<path d="M17.2919 10.2904C17.5305 8.69352 16.3146 7.83504 14.6519 7.2624L15.1919 5.09939L13.8748 4.77131L13.3487 6.87744C13.0029 6.79128 12.6474 6.70943 12.2942 6.62927L12.8222 4.50923L11.5064 4.18115L10.9679 6.34331L8.31208 5.68547L7.96168 7.092C7.96168 7.092 8.93872 7.31592 8.91808 7.32984C9.45136 7.46304 9.54808 7.81584 9.53176 8.09568L8.05408 14.0213C7.9888 14.1833 7.82344 14.4262 7.45072 14.3333C7.46392 14.3525 6.4936 14.0933 6.4936 14.0933L5.83984 15.6028L8.49184 16.2724L7.9468 18.4606L9.262 18.7886L9.802 16.624C10.162 16.7214 10.51 16.8114 10.851 16.8961L10.3132 19.0507L11.6301 19.3788L12.1751 17.1948C14.4207 17.6196 16.1093 17.4482 16.8191 15.4188C17.3917 13.7838 16.791 12.8406 15.6095 12.2252C16.4699 12.026 17.1179 11.4604 17.2908 10.2912L17.2919 10.2904ZM14.2823 14.5094C13.8743 16.1444 11.1221 15.2609 10.2291 15.0389L10.9522 12.1403C11.8448 12.363 14.7069 12.8041 14.2828 14.5092L14.2823 14.5094ZM14.6908 10.2672C14.3195 11.7552 12.0279 10.9992 11.2841 10.8137L11.9388 8.184C12.6828 8.36976 15.0769 8.7156 14.6898 10.2671" fill="white"/>
</svg>
