<svg width="24" height="24" viewBox="0 0 24 24" fill="none" xmlns="http://www.w3.org/2000/svg">
<circle cx="12" cy="12" r="12" fill="#0F8FF8"/>
<path d="M6.6084 11.2723V10.2323H13.8564L13.5044 11.2723H6.6084ZM6.6084 13.4483V12.3923H13.2004L12.8804 13.4483H6.6084ZM12.5924 6.28027C13.2751 6.28027 13.8831 6.37627 14.4164 6.56827C14.9604 6.76027 15.4191 7.04294 15.7924 7.41627C16.1764 7.78961 16.4537 8.24294 16.6244 8.77627L14.9284 9.54427C14.8004 9.00027 14.5337 8.59494 14.1284 8.32827C13.7337 8.05094 13.2591 7.91227 12.7044 7.91227C12.0964 7.91227 11.5844 8.06161 11.1684 8.36027C10.7524 8.64827 10.4324 9.08027 10.2084 9.65627C9.99507 10.2216 9.8884 10.9096 9.8884 11.7203C9.8884 12.9256 10.1124 13.8643 10.5604 14.5363C11.0191 15.1976 11.7337 15.5283 12.7044 15.5283C13.2911 15.5283 13.7764 15.3789 14.1604 15.0803C14.5551 14.7709 14.8271 14.3069 14.9764 13.6883L16.7364 14.2483C16.5657 14.8776 16.2884 15.4109 15.9044 15.8483C15.5204 16.2856 15.0511 16.6163 14.4964 16.8403C13.9417 17.0536 13.3177 17.1603 12.6244 17.1603C11.6217 17.1603 10.7631 16.9416 10.0484 16.5043C9.33373 16.0669 8.7844 15.4429 8.4004 14.6323C8.02707 13.8216 7.8404 12.8509 7.8404 11.7203C7.8404 10.5896 8.03773 9.61894 8.4324 8.80827C8.82707 7.99761 9.38173 7.37361 10.0964 6.93627C10.8111 6.49894 11.6431 6.28027 12.5924 6.28027Z" fill="white"/>
</svg>
