<svg xmlns="http://www.w3.org/2000/svg" viewBox="0 0 1024 1024"><defs><style>.cls-1{fill:transparent;}.cls-2{fill:#2768a0;}</style></defs><g id="Layer_2" data-name="Layer 2"><g id="Layer_1-2" data-name="Layer 1"><rect class="cls-1" width="1024" height="1024"/><path class="cls-2" d="M560.47,390.66a61.75,61.75,0,1,1-13-37.85A61.75,61.75,0,0,1,560.47,390.66Z"/><path class="cls-2" d="M665,235.78l-81.67,81.66a9.8,9.8,0,0,1-13.73.2c-27.27-26.36-69.81-36.64-105.45-23.41-38.63,14.34-65.63,56.15-61.21,97.11,3.19,29.56,20.77,55.71,41.24,77.26.2.22.41.43.62.65,33.89,35.47,33.72,91.34-.81,126.2l-23.7,23.92a9.87,9.87,0,0,1-13.44.53C374.65,592.15,342.62,564,314.74,532c-29.9-34.37-55.08-73.68-67.8-117.42a229.42,229.42,0,0,1-8.63-76.42,231.76,231.76,0,0,1,16.88-75.33A216.32,216.32,0,0,1,273,228.51q5.22-8.16,11.18-15.81c4.61-5.91,9.7-11.35,14.84-16.88l7-7.48a9.86,9.86,0,0,1,14.17-.28L338,205.83a8.78,8.78,0,0,0,11.83.48c44.61-37.23,103.52-57,161.56-53.88,57.43,3,113.34,28.43,153.65,69.42A9.88,9.88,0,0,1,665,235.78Z"/><path class="cls-2" d="M464.81,639.64a60.12,60.12,0,1,1,12.62,36.85A60.11,60.11,0,0,1,464.81,639.64Z"/><path class="cls-2" d="M359,788.22l81.67-81.66a9.8,9.8,0,0,1,13.73-.2c27.27,26.36,69.81,36.64,105.45,23.41,38.63-14.34,65.63-56.15,61.21-97.11-3.19-29.56-20.77-55.71-41.24-77.26-.2-.22-.41-.43-.62-.65-33.89-35.47-33.72-91.34.81-126.2l23.7-23.92a9.87,9.87,0,0,1,13.44-.53c32.2,27.75,64.23,55.88,92.11,87.93,29.9,34.37,55.08,73.68,67.8,117.42a229.42,229.42,0,0,1,8.63,76.42,231.76,231.76,0,0,1-16.88,75.33A216.32,216.32,0,0,1,751,795.49q-5.22,8.16-11.18,15.81c-4.61,5.91-9.7,11.35-14.84,16.88l-7,7.48a9.86,9.86,0,0,1-14.17.28L686,818.17a8.78,8.78,0,0,0-11.83-.48c-44.61,37.23-103.52,57-161.56,53.88C455.2,868.52,399.29,843.14,359,802.15A9.88,9.88,0,0,1,359,788.22Z"/></g></g></svg>
