<svg width="185" height="202" viewBox="0 0 185 202" fill="none" xmlns="http://www.w3.org/2000/svg">
<path d="M99.3089 57.4826C99.3042 59.531 98.5733 61.5113 97.2461 63.0715C95.9189 64.6316 94.0814 65.6706 92.0603 66.0036C90.0392 66.3366 87.9655 65.942 86.2079 64.8901C84.4503 63.8382 83.1227 62.197 82.4612 60.2584C81.7996 58.3199 81.847 56.2095 82.5949 54.3026C83.3428 52.3957 84.7427 50.8157 86.5457 49.8437C88.3488 48.8718 90.4381 48.5707 92.4422 48.9941C94.4463 49.4174 96.2353 50.5378 97.4912 52.156C98.6735 53.6795 99.3133 55.5542 99.3089 57.4826Z" fill="#2F8647"/>
<path d="M113.973 35.7497L102.514 47.2086C102.261 47.4649 101.917 47.6114 101.556 47.6163C101.195 47.6213 100.847 47.4845 100.587 47.2353C96.7682 43.5366 90.7924 42.095 85.782 43.9527C80.3622 45.9502 76.5736 51.8295 77.1928 57.5789C77.6422 61.7237 80.1091 65.3925 82.9822 68.4187L83.0654 68.5085C85.3594 70.892 86.6315 74.0774 86.6104 77.3854C86.5892 80.6935 85.2765 83.8623 82.9522 86.2163L79.6231 89.5721C79.3762 89.8209 79.044 89.9669 78.6937 89.9805C78.3434 89.9941 78.0009 89.8743 77.7355 89.6453C73.2178 85.7535 68.7234 81.8085 64.8117 77.3075C60.617 72.4869 57.0847 66.9705 55.297 60.8348C53.2869 53.8032 53.6949 46.3005 56.4555 39.5283C57.1427 37.8535 57.9784 36.2435 58.9524 34.7176C59.4384 33.9553 59.9511 33.2129 60.5204 32.5004C61.1663 31.6715 61.882 30.9058 62.6011 30.1301L63.5799 29.0814C63.7064 28.9442 63.8594 28.8341 64.0295 28.7575C64.1997 28.6809 64.3836 28.6395 64.5701 28.6358C64.7567 28.6321 64.9421 28.6661 65.1152 28.7358C65.2883 28.8055 65.4455 28.9095 65.5774 29.0414L68.0842 31.535C68.3026 31.7532 68.5951 31.8812 68.9035 31.8935C69.212 31.9059 69.5137 31.8016 69.7488 31.6016C76.0438 26.3356 84.0921 23.6355 92.2893 24.0396C100.486 24.4438 108.23 27.9225 113.977 33.7821C114.106 33.9111 114.209 34.0645 114.279 34.2335C114.349 34.4025 114.385 34.5837 114.385 34.7666C114.385 34.9495 114.348 35.1306 114.278 35.2993C114.207 35.4681 114.103 35.6211 113.973 35.7497Z" fill="#2F4786"/>
<path d="M85.8848 92.4187C85.8859 90.8181 86.3425 89.2509 87.2012 87.9001C88.06 86.5494 89.2854 85.471 90.7343 84.7908C92.1832 84.1107 93.7958 83.857 95.3836 84.0594C96.9713 84.2617 98.4687 84.9118 99.7007 85.9335C100.106 86.2687 100.479 86.6422 100.813 87.0488C101.676 88.0911 102.275 89.3258 102.561 90.6486C102.846 91.9715 102.809 93.3435 102.452 94.649C102.096 95.9544 101.43 97.1548 100.512 98.1488C99.5937 99.1429 98.4497 99.9014 97.1766 100.36C95.9035 100.819 94.5387 100.965 93.1974 100.785C91.8562 100.605 90.5779 100.105 89.4705 99.3275C88.3631 98.5496 87.4592 97.5167 86.8351 96.316C86.211 95.1153 85.8851 93.782 85.8848 92.4287V92.4187Z" fill="#2F4786"/>
<path d="M71.037 113.262L82.4993 101.807C82.7523 101.551 83.0956 101.405 83.4553 101.399C83.8151 101.393 84.1627 101.529 84.4236 101.777C88.2521 105.479 94.2212 106.92 99.2183 105.063C104.641 103.065 108.43 97.186 107.808 91.4365C107.361 87.2918 104.895 83.623 102.021 80.5968L101.935 80.5069C99.6425 78.1227 98.3715 74.9376 98.3926 71.6301C98.4137 68.3225 99.7254 65.154 102.048 62.7992L105.377 59.4434C105.624 59.195 105.955 59.049 106.304 59.0348C106.654 59.0206 106.996 59.1392 107.262 59.3668C111.779 63.2619 116.274 67.207 120.189 71.7047C124.383 76.5286 127.916 82.045 129.7 88.1806C131.714 95.2118 131.306 102.716 128.541 109.487C127.857 111.163 127.022 112.773 126.048 114.298C125.559 115.06 125.049 115.803 124.48 116.515C123.814 117.344 123.118 118.11 122.396 118.885L121.404 119.921C121.277 120.058 121.124 120.168 120.954 120.245C120.784 120.321 120.6 120.363 120.414 120.366C120.227 120.37 120.042 120.336 119.869 120.266C119.695 120.197 119.538 120.093 119.406 119.961L116.899 117.467C116.681 117.25 116.388 117.122 116.08 117.11C115.772 117.098 115.47 117.201 115.235 117.401C108.945 122.664 100.903 125.363 92.7114 124.961C84.5199 124.559 76.7809 121.084 71.037 115.23C70.9075 115.101 70.8047 114.948 70.7345 114.779C70.6644 114.61 70.6283 114.429 70.6283 114.246C70.6283 114.063 70.6644 113.882 70.7345 113.714C70.8047 113.545 70.9075 113.391 71.037 113.262Z" fill="#2F8647"/>
<path d="M28.7333 176.259C27.3858 175.728 26.2114 174.834 25.3399 173.676C24.4747 172.484 24.006 171.049 24 169.576H30.3347C30.3751 170.357 30.7123 171.093 31.2775 171.633C31.8552 172.131 32.6009 172.391 33.3632 172.359C34.1098 172.401 34.8481 172.185 35.4554 171.749C35.7071 171.549 35.9078 171.291 36.0408 170.998C36.1738 170.705 36.2354 170.385 36.2206 170.064C36.2306 169.786 36.1826 169.51 36.0798 169.252C35.9769 168.994 35.8214 168.76 35.6233 168.565C35.1872 168.154 34.6795 167.826 34.1252 167.597C33.3011 167.261 32.4593 166.97 31.6036 166.725C30.2777 166.335 28.9827 165.848 27.7291 165.266C26.7084 164.762 25.8228 164.021 25.1462 163.106C24.4294 162.15 24.071 160.903 24.071 159.364C24.071 157.091 24.8943 155.31 26.541 154.02C28.1876 152.731 30.3401 152.085 32.9984 152.083C35.6911 152.083 37.8608 152.729 39.5074 154.02C41.154 155.312 42.0365 157.105 42.1549 159.399H35.6975C35.6913 159.045 35.6104 158.696 35.4602 158.375C35.31 158.054 35.0939 157.768 34.8258 157.536C34.2465 157.068 33.5165 156.827 32.7723 156.858C32.1411 156.828 31.5211 157.033 31.0321 157.433C30.7879 157.672 30.6026 157.965 30.4906 158.288C30.3787 158.61 30.3433 158.955 30.3871 159.294C30.4309 159.633 30.5528 159.957 30.7431 160.241C30.9335 160.525 31.1871 160.76 31.4841 160.93C32.5954 161.53 33.7662 162.012 34.9775 162.37C36.292 162.796 37.5775 163.308 38.8261 163.9C39.8306 164.402 40.7057 165.129 41.3833 166.024C42.1043 166.952 42.4649 168.147 42.4649 169.608C42.4794 170.949 42.1109 172.267 41.4026 173.405C40.6499 174.581 39.5828 175.521 38.3225 176.121C36.8275 176.823 35.1888 177.166 33.5375 177.121C31.8952 177.151 30.2629 176.858 28.7333 176.259Z" fill="#2F4786"/>
<path d="M49.8291 175.946C48.3272 175.151 47.0838 173.943 46.2453 172.465C45.3839 170.837 44.9349 169.022 44.9378 167.18C44.9406 165.337 45.3951 163.524 46.2614 161.898C47.1049 160.411 48.3548 159.196 49.8647 158.395C51.4594 157.568 53.2344 157.15 55.0306 157.178C56.8148 157.155 58.5769 157.573 60.1609 158.395C61.6763 159.193 62.932 160.407 63.7803 161.895C64.6848 163.503 65.1419 165.325 65.1041 167.17C65.1428 169.017 64.6797 170.839 63.7642 172.443C62.9023 173.932 61.6347 175.146 60.1093 175.943C58.5132 176.766 56.7391 177.184 54.9434 177.16C53.1644 177.185 51.4071 176.768 49.8291 175.946ZM57.8718 170.757C58.6725 169.92 59.0729 168.726 59.0729 167.174C59.0729 165.622 58.6822 164.426 57.9009 163.587C57.5324 163.19 57.0867 162.874 56.5912 162.657C56.0957 162.44 55.561 162.326 55.02 162.324C54.479 162.322 53.9433 162.43 53.4459 162.643C52.9484 162.855 52.4999 163.168 52.128 163.561C51.3617 164.385 50.9785 165.586 50.9785 167.164C50.9785 168.742 51.3563 169.936 52.1118 170.748C52.464 171.152 52.9009 171.474 53.3913 171.69C53.8818 171.907 54.4139 172.013 54.9498 172C55.4943 172.009 56.0346 171.903 56.5353 171.689C57.0359 171.475 57.4859 171.157 57.8557 170.757H57.8718Z" fill="#2F4786"/>
<path d="M68.3328 161.882C69.119 160.409 70.3187 159.197 71.7843 158.395C73.3412 157.564 75.0853 157.144 76.8501 157.178C79.2845 157.178 81.3208 157.816 82.9588 159.093C84.5968 160.369 85.673 162.168 86.1875 164.488H79.856C79.3201 163.003 78.2901 162.26 76.7565 162.26C76.251 162.244 75.7493 162.352 75.2947 162.573C74.8402 162.795 74.4465 163.124 74.1477 163.532C73.502 164.378 73.1791 165.591 73.1791 167.171C73.1791 168.751 73.502 169.963 74.1477 170.806C74.4465 171.214 74.8402 171.544 75.2947 171.765C75.7493 171.987 76.251 172.094 76.7565 172.079C78.2901 172.079 79.3201 171.336 79.856 169.851H86.1907C85.6806 172.124 84.6043 173.91 82.962 175.21C81.3197 176.51 79.2889 177.156 76.8695 177.148C75.0995 177.19 73.3485 176.776 71.7843 175.947C70.3212 175.146 69.123 173.936 68.3361 172.466C67.5247 170.82 67.1027 169.009 67.1027 167.174C67.1027 165.339 67.5247 163.528 68.3361 161.882H68.3328Z" fill="#2F4786"/>
<path d="M89.7783 154.521C89.4589 154.235 89.205 153.883 89.034 153.489C88.8629 153.096 88.7787 152.67 88.7871 152.241C88.7761 151.807 88.859 151.375 89.0301 150.976C89.2011 150.576 89.4563 150.218 89.7783 149.926C90.4782 149.296 91.3973 148.964 92.3386 149.003C93.2687 148.968 94.1754 149.3 94.8635 149.926C95.1849 150.219 95.4398 150.577 95.6108 150.976C95.7818 151.376 95.865 151.807 95.8547 152.241C95.8622 152.67 95.7776 153.096 95.6066 153.489C95.4356 153.882 95.1822 154.234 94.8635 154.521C94.1754 155.148 93.2687 155.479 92.3386 155.444C91.3973 155.483 90.4782 155.152 89.7783 154.521ZM95.2961 157.462V176.889H89.3457V157.459L95.2961 157.462Z" fill="#2F4786"/>
<path d="M103.323 175.946C101.82 175.151 100.576 173.943 99.7356 172.466C98.844 170.848 98.3984 169.021 98.4441 167.174C98.4043 165.329 98.8616 163.507 99.7679 161.898C100.612 160.411 101.863 159.196 103.374 158.395C104.974 157.595 106.738 157.178 108.527 157.178C110.316 157.178 112.08 157.595 113.68 158.395C115.2 159.193 116.459 160.408 117.309 161.898C118.181 163.52 118.636 165.333 118.633 167.175C118.63 169.016 118.17 170.827 117.293 172.447C116.43 173.936 115.162 175.15 113.635 175.946C112.039 176.77 110.265 177.188 108.469 177.164C106.679 177.193 104.91 176.775 103.323 175.946ZM111.365 170.758C112.166 169.921 112.566 168.726 112.566 167.174C112.566 165.622 112.177 164.427 111.398 163.587C111.029 163.193 110.584 162.879 110.089 162.663C109.594 162.448 109.061 162.336 108.521 162.335C107.982 162.333 107.447 162.442 106.952 162.655C106.456 162.867 106.009 163.179 105.638 163.571C104.871 164.395 104.488 165.596 104.488 167.174C104.488 168.752 104.866 169.947 105.621 170.758C105.973 171.162 106.409 171.484 106.899 171.7C107.389 171.917 107.921 172.023 108.456 172.011C109.002 172.019 109.543 171.911 110.045 171.695C110.546 171.479 110.996 171.16 111.365 170.758Z" fill="#2F4786"/>
<path d="M140.972 157.459V176.886H135.018V174.238C134.385 175.123 133.542 175.835 132.564 176.311C131.5 176.842 130.325 177.111 129.135 177.096C127.759 177.123 126.401 176.78 125.203 176.101C124.054 175.43 123.132 174.43 122.555 173.231C121.901 171.85 121.579 170.335 121.616 168.808V157.459H127.534V168.007C127.534 169.299 127.871 170.308 128.545 171.036C128.894 171.399 129.317 171.684 129.785 171.87C130.253 172.057 130.756 172.141 131.26 172.117C131.769 172.143 132.278 172.059 132.752 171.873C133.226 171.686 133.655 171.401 134.011 171.036C134.682 170.319 135.018 169.309 135.018 168.007V157.459H140.972Z" fill="#2F4786"/>
<path d="M148.627 176.295C147.395 175.784 146.316 174.962 145.496 173.909C144.738 172.931 144.288 171.75 144.204 170.516H150.087C150.117 170.84 150.216 171.153 150.378 171.435C150.54 171.717 150.761 171.961 151.026 172.149C151.622 172.581 152.344 172.803 153.08 172.779C153.686 172.816 154.288 172.664 154.804 172.343C154.993 172.221 155.148 172.053 155.255 171.855C155.361 171.657 155.416 171.435 155.414 171.21C155.417 170.939 155.334 170.674 155.177 170.453C155.021 170.231 154.799 170.065 154.542 169.977C153.63 169.601 152.687 169.304 151.724 169.089C150.541 168.826 149.378 168.482 148.243 168.059C147.312 167.699 146.485 167.113 145.838 166.354C145.166 165.577 144.83 164.527 144.83 163.203C144.821 162.118 145.144 161.055 145.754 160.158C146.432 159.188 147.374 158.432 148.469 157.982C149.818 157.419 151.27 157.146 152.731 157.181C155.168 157.181 157.089 157.785 158.494 158.993C159.193 159.595 159.767 160.33 160.182 161.154C160.597 161.978 160.845 162.876 160.913 163.797H155.408C155.375 163.482 155.279 163.177 155.127 162.9C154.974 162.623 154.768 162.379 154.52 162.183C153.952 161.765 153.258 161.555 152.553 161.588C151.987 161.55 151.422 161.69 150.939 161.989C150.762 162.111 150.618 162.275 150.521 162.467C150.423 162.659 150.375 162.872 150.381 163.087C150.382 163.361 150.468 163.629 150.627 163.853C150.786 164.077 151.01 164.247 151.268 164.339C152.16 164.711 153.087 164.992 154.035 165.176C155.229 165.468 156.403 165.835 157.552 166.273C158.479 166.647 159.298 167.245 159.938 168.014C160.622 168.814 160.976 169.89 161 171.242C161.011 172.336 160.672 173.404 160.031 174.29C159.327 175.233 158.374 175.962 157.28 176.395C155.968 176.927 154.563 177.188 153.148 177.164C151.597 177.19 150.058 176.894 148.627 176.295Z" fill="#2F4786"/>
</svg>
