<svg width="161" height="57" viewBox="0 0 161 57" fill="none" xmlns="http://www.w3.org/2000/svg">
<path d="M26.4021 22.6526C26.4006 23.3043 26.1681 23.9343 25.7458 24.4307C25.3236 24.9271 24.739 25.2576 24.096 25.3635C23.453 25.4695 22.7933 25.3439 22.2341 25.0093C21.6749 24.6746 21.2526 24.1525 21.0421 23.5357C20.8316 22.919 20.8467 22.2476 21.0846 21.6409C21.3226 21.0342 21.768 20.5316 22.3416 20.2224C22.9152 19.9131 23.5799 19.8174 24.2175 19.952C24.8551 20.0867 25.4243 20.4432 25.8238 20.958C26.2 21.4427 26.4035 22.0391 26.4021 22.6526Z" fill="white"/>
<path d="M31.0677 15.7381L27.4221 19.3837C27.3414 19.4652 27.2319 19.5118 27.1172 19.5134C27.0025 19.515 26.8918 19.4714 26.8089 19.3922C25.594 18.2154 23.6929 17.7568 22.0988 18.3478C20.3745 18.9833 19.1692 20.8538 19.3662 22.6829C19.5092 24.0016 20.294 25.1688 21.2081 26.1315L21.2346 26.1601C21.9644 26.9184 22.3691 27.9318 22.3624 28.9843C22.3556 30.0367 21.938 31.0449 21.1986 31.7938L20.1394 32.8614C20.0608 32.9405 19.9552 32.987 19.8437 32.9913C19.7323 32.9956 19.6233 32.9575 19.5389 32.8847C18.1016 31.6465 16.6717 30.3914 15.4272 28.9595C14.0927 27.4258 12.969 25.6708 12.4002 23.7188C11.7607 21.4817 11.8905 19.0948 12.7688 16.9402C12.9874 16.4074 13.2533 15.8952 13.5631 15.4098C13.7178 15.1672 13.8809 14.931 14.062 14.7044C14.2675 14.4406 14.4952 14.197 14.724 13.9502L15.0354 13.6166C15.0756 13.573 15.1243 13.5379 15.1784 13.5136C15.2325 13.4892 15.291 13.476 15.3504 13.4749C15.4098 13.4737 15.4687 13.4845 15.5238 13.5067C15.5789 13.5288 15.6289 13.5619 15.6709 13.6039L16.4684 14.3972C16.5379 14.4666 16.6309 14.5074 16.729 14.5113C16.8272 14.5152 16.9232 14.482 16.998 14.4184C19.0007 12.743 21.5612 11.884 24.1691 12.0126C26.777 12.1412 29.2406 13.2479 31.0688 15.1121C31.1101 15.1532 31.1428 15.202 31.1651 15.2557C31.1874 15.3095 31.1988 15.3671 31.1987 15.4253C31.1986 15.4835 31.187 15.5411 31.1645 15.5948C31.142 15.6485 31.1091 15.6972 31.0677 15.7381Z" fill="white"/>
<path d="M22.1315 33.7674C22.1318 33.2582 22.2771 32.7596 22.5503 32.3299C22.8235 31.9001 23.2134 31.557 23.6743 31.3407C24.1353 31.1243 24.6483 31.0436 25.1535 31.108C25.6586 31.1723 26.135 31.3791 26.5269 31.7042C26.656 31.8108 26.7745 31.9297 26.8807 32.059C27.1553 32.3906 27.346 32.7834 27.4368 33.2043C27.5276 33.6251 27.5158 34.0617 27.4023 34.477C27.2889 34.8923 27.0771 35.2742 26.785 35.5904C26.4929 35.9067 26.1289 36.148 25.7239 36.294C25.3189 36.4399 24.8847 36.4863 24.458 36.4291C24.0312 36.3719 23.6246 36.2129 23.2723 35.9654C22.92 35.7179 22.6324 35.3893 22.4338 35.0073C22.2353 34.6253 22.1316 34.2011 22.1315 33.7706V33.7674Z" fill="white"/>
<path d="M17.4077 40.3981L21.0544 36.7535C21.1349 36.6722 21.2441 36.6256 21.3585 36.6238C21.473 36.622 21.5836 36.6652 21.6666 36.744C22.8846 37.9218 24.7837 38.3804 26.3735 37.7894C28.0988 37.1539 29.3041 35.2834 29.1061 33.4543C28.9641 32.1356 28.1793 30.9685 27.2653 30.0057L27.2377 29.9771C26.5084 29.2185 26.104 28.2052 26.1108 27.153C26.1175 26.1007 26.5348 25.0926 27.2737 24.3435L28.3329 23.2759C28.4113 23.1968 28.5166 23.1504 28.6278 23.1459C28.739 23.1414 28.8478 23.1791 28.9324 23.2515C30.3696 24.4907 31.7995 25.7458 33.045 27.1767C34.3796 28.7114 35.5033 30.4664 36.071 32.4184C36.7119 34.6553 36.5821 37.0428 35.7024 39.197C35.4846 39.73 35.2191 40.2422 34.9091 40.7275C34.7535 40.97 34.5914 41.2062 34.4103 41.4329C34.1985 41.6966 33.9771 41.9402 33.7473 42.187L33.4316 42.5164C33.3914 42.56 33.3427 42.5951 33.2886 42.6194C33.2344 42.6438 33.1759 42.657 33.1166 42.6581C33.0572 42.6593 32.9983 42.6485 32.9432 42.6263C32.8881 42.6042 32.8381 42.5711 32.7961 42.5291L31.9986 41.7358C31.929 41.6666 31.836 41.626 31.7379 41.6221C31.6399 41.6182 31.5439 41.6512 31.469 41.7146C29.468 43.389 26.9094 44.2478 24.3033 44.1198C21.6972 43.9918 19.2351 42.8865 17.4077 41.024C17.3665 40.983 17.3338 40.9342 17.3115 40.8805C17.2892 40.8268 17.2777 40.7692 17.2777 40.7111C17.2777 40.6529 17.2892 40.5953 17.3115 40.5416C17.3338 40.4879 17.3665 40.4391 17.4077 40.3981Z" fill="white"/>
<path d="M52.5525 37.6691C51.5705 37.2815 50.7147 36.6301 50.0796 35.7868C49.4491 34.9177 49.1075 33.8724 49.1031 32.7987H53.7195C53.7489 33.3676 53.9947 33.9038 54.4065 34.2974C54.8275 34.6606 55.371 34.8499 55.9265 34.8268C56.4706 34.8571 57.0086 34.7001 57.4512 34.3821C57.6346 34.2361 57.7808 34.0487 57.8778 33.8351C57.9747 33.6216 58.0196 33.3882 58.0088 33.1539C58.0161 32.9517 57.9811 32.7502 57.9062 32.5622C57.8312 32.3742 57.7179 32.204 57.5735 32.0622C57.2557 31.7622 56.8857 31.523 56.4818 31.3563C55.8813 31.1113 55.2678 30.8992 54.6442 30.7211C53.678 30.437 52.7342 30.0815 51.8207 29.6576C51.0769 29.2903 50.4315 28.7506 49.9384 28.0835C49.4161 27.387 49.1549 26.4781 49.1549 25.3565C49.1549 23.7001 49.7549 22.4021 50.9549 21.4625C52.1548 20.5229 53.7234 20.0523 55.6606 20.0508C57.6229 20.0508 59.204 20.5214 60.404 21.4625C61.604 22.4037 62.2471 23.7103 62.3334 25.3824H57.6276C57.6231 25.1242 57.5642 24.8698 57.4547 24.6359C57.3452 24.4019 57.1877 24.1937 56.9923 24.0248C56.5702 23.6837 56.0382 23.508 55.4959 23.5307C55.0359 23.5086 54.5841 23.6578 54.2277 23.9495C54.0498 24.1238 53.9147 24.3369 53.8331 24.5723C53.7516 24.8076 53.7258 25.0586 53.7577 25.3056C53.7896 25.5526 53.8784 25.7889 54.0172 25.9957C54.1559 26.2025 54.3407 26.3744 54.5571 26.4977C55.3669 26.935 56.2202 27.2867 57.1029 27.547C58.0608 27.8581 58.9976 28.2306 59.9076 28.6623C60.6396 29.0281 61.2773 29.5579 61.771 30.2105C62.2965 30.8866 62.5592 31.7571 62.5592 32.8222C62.5698 33.7994 62.3013 34.7593 61.7851 35.5892C61.2366 36.4456 60.459 37.1311 59.5405 37.5679C58.4511 38.08 57.2569 38.3298 56.0535 38.2973C54.8567 38.3188 53.6672 38.1053 52.5525 37.6691Z" fill="white"/>
<path d="M67.9259 37.4404C66.8314 36.8612 65.9252 35.9811 65.3142 34.904C64.6865 33.7172 64.3593 32.3946 64.3613 31.0521C64.3634 29.7095 64.6946 28.3879 65.326 27.2031C65.9406 26.1197 66.8515 25.2341 67.9518 24.6502C69.1139 24.0477 70.4074 23.7429 71.7164 23.7632C73.0166 23.7469 74.3008 24.0515 75.4551 24.6502C76.5594 25.2316 77.4745 26.1166 78.0927 27.2007C78.7518 28.3731 79.0849 29.7006 79.0573 31.0453C79.0856 32.3908 78.7481 33.7188 78.0809 34.8876C77.4528 35.973 76.5291 36.8576 75.4174 37.4381C74.2543 38.0379 72.9615 38.3426 71.6528 38.3251C70.3564 38.3432 69.0758 38.0392 67.9259 37.4404ZM73.7869 33.6594C74.3704 33.0492 74.6622 32.1786 74.6622 31.0477C74.6622 29.9167 74.3775 29.0454 73.8081 28.4336C73.5396 28.1449 73.2148 27.9143 72.8537 27.7561C72.4926 27.5978 72.1029 27.5153 71.7087 27.5135C71.3144 27.5117 70.924 27.5908 70.5615 27.7458C70.1991 27.9008 69.8722 28.1285 69.6011 28.4148C69.0427 29.0156 68.7635 29.8908 68.7635 31.0406C68.7635 32.1904 69.0388 33.0609 69.5894 33.6523C69.846 33.9468 70.1644 34.1813 70.5218 34.3391C70.8792 34.4968 71.267 34.574 71.6575 34.5652C72.0544 34.5715 72.448 34.4941 72.8129 34.338C73.1778 34.1819 73.5057 33.9507 73.7751 33.6594H73.7869Z" fill="white"/>
<path d="M81.4102 27.1917C81.9831 26.1177 82.8573 25.2345 83.9254 24.6506C85.06 24.0444 86.3309 23.739 87.617 23.7636C89.3911 23.7636 90.875 24.2287 92.0687 25.1588C93.2624 26.089 94.0467 27.3996 94.4216 29.0905H89.8076C89.417 28.0082 88.6664 27.467 87.5488 27.467C87.1804 27.4554 86.8148 27.5338 86.4836 27.6954C86.1523 27.8569 85.8654 28.0967 85.6477 28.394C85.1771 29.0105 84.9418 29.8944 84.9418 31.0457C84.9418 32.1971 85.1771 33.0802 85.6477 33.6951C85.8654 33.9924 86.1523 34.2322 86.4836 34.3937C86.8148 34.5553 87.1804 34.6337 87.5488 34.6221C88.6664 34.6221 89.417 34.0809 89.8076 32.9986H94.4239C94.0522 34.655 93.2679 35.957 92.071 36.9044C90.8742 37.8518 89.3942 38.3224 87.6312 38.3161C86.3413 38.3467 85.0652 38.0453 83.9254 37.4408C82.8592 36.8574 81.986 35.976 81.4125 34.9044C80.8212 33.7049 80.5137 32.3854 80.5137 31.0481C80.5137 29.7107 80.8212 28.3913 81.4125 27.1917H81.4102Z" fill="white"/>
<path d="M97.0385 21.827C96.8057 21.6183 96.6207 21.3619 96.4961 21.0752C96.3714 20.7886 96.31 20.4784 96.3161 20.1659C96.3081 19.8493 96.3685 19.5347 96.4932 19.2435C96.6179 18.9524 96.8038 18.6916 97.0385 18.4789C97.5485 18.0192 98.2183 17.7777 98.9043 17.8059C99.5821 17.7805 100.243 18.0221 100.744 18.4789C100.978 18.6919 101.164 18.9528 101.289 19.2438C101.413 19.5349 101.474 19.8493 101.467 20.1659C101.472 20.4783 101.41 20.7883 101.286 21.0749C101.161 21.3614 100.976 21.6179 100.744 21.827C100.243 22.2837 99.5821 22.5254 98.9043 22.4999C98.2183 22.5282 97.5485 22.2866 97.0385 21.827ZM101.06 23.9705V38.1277H96.7232V23.9681L101.06 23.9705Z" fill="white"/>
<path d="M106.909 37.4404C105.814 36.8605 104.907 35.9807 104.295 34.904C103.645 33.7246 103.32 32.3937 103.354 31.0476C103.325 29.7028 103.658 28.3749 104.318 27.203C104.934 26.1193 105.845 25.2337 106.946 24.6502C108.112 24.0669 109.398 23.7632 110.702 23.7632C112.005 23.7632 113.291 24.0669 114.457 24.6502C115.564 25.2312 116.482 26.117 117.102 27.203C117.737 28.3849 118.068 29.7062 118.066 31.0479C118.064 32.3897 117.729 33.7099 117.09 34.8899C116.461 35.9755 115.536 36.8601 114.424 37.4404C113.261 38.0405 111.968 38.3452 110.659 38.3274C109.355 38.3488 108.066 38.0439 106.909 37.4404ZM112.77 33.6593C113.353 33.0491 113.645 32.1786 113.645 31.0476C113.645 29.9167 113.361 29.0453 112.793 28.4336C112.525 28.1465 112.2 27.9175 111.84 27.7605C111.479 27.6036 111.09 27.522 110.697 27.5209C110.304 27.5198 109.915 27.5992 109.553 27.7541C109.192 27.909 108.866 28.1363 108.596 28.4218C108.037 29.0226 107.758 29.8978 107.758 31.0476C107.758 32.1974 108.034 33.068 108.584 33.6593C108.84 33.9537 109.158 34.188 109.515 34.3458C109.872 34.5036 110.26 34.5809 110.65 34.5722C111.048 34.578 111.442 34.4996 111.807 34.3423C112.173 34.185 112.501 33.9522 112.77 33.6593Z" fill="white"/>
<path d="M134.345 23.9683V38.1255H130.007V36.1962C129.545 36.8405 128.931 37.3596 128.218 37.7067C127.443 38.0932 126.586 38.2892 125.72 38.2785C124.717 38.2984 123.727 38.0481 122.854 37.5538C122.017 37.0644 121.345 36.336 120.925 35.4621C120.448 34.4558 120.213 33.3518 120.24 32.2386V23.9683H124.553V31.6551C124.553 32.5963 124.798 33.3319 125.289 33.8621C125.544 34.1271 125.852 34.3345 126.193 34.4705C126.534 34.6064 126.901 34.6678 127.268 34.6503C127.639 34.6687 128.009 34.608 128.355 34.4721C128.701 34.3362 129.013 34.1282 129.273 33.8621C129.762 33.3398 130.007 32.6041 130.007 31.6551V23.9683H134.345Z" fill="white"/>
<path d="M139.924 37.6944C139.026 37.3219 138.24 36.7228 137.642 35.9557C137.09 35.243 136.762 34.3822 136.701 33.4828H140.988C141.01 33.7188 141.082 33.9474 141.2 34.1528C141.318 34.3583 141.479 34.5359 141.673 34.6733C142.107 34.9879 142.633 35.1493 143.169 35.1322C143.611 35.1589 144.05 35.0479 144.425 34.8145C144.563 34.7256 144.676 34.6032 144.754 34.4588C144.832 34.3144 144.872 34.1527 144.87 33.9887C144.872 33.7911 144.812 33.598 144.698 33.4367C144.584 33.2754 144.422 33.1541 144.235 33.0899C143.57 32.8161 142.883 32.5996 142.181 32.4428C141.319 32.2517 140.471 32.0009 139.644 31.6923C138.966 31.4302 138.363 31.0033 137.891 30.4499C137.402 29.8837 137.157 29.1182 137.157 28.1535C137.151 27.3627 137.386 26.5887 137.83 25.9348C138.324 25.2275 139.011 24.6771 139.809 24.3489C140.792 23.9384 141.85 23.7396 142.915 23.7654C144.691 23.7654 146.09 24.2054 147.115 25.0854C147.624 25.5245 148.042 26.0598 148.344 26.6605C148.647 27.2613 148.828 27.9157 148.877 28.5865H144.865C144.841 28.3572 144.772 28.135 144.661 27.933C144.549 27.731 144.399 27.5532 144.218 27.41C143.805 27.1055 143.299 26.9526 142.785 26.9771C142.372 26.9494 141.961 27.0514 141.609 27.2688C141.48 27.3577 141.375 27.4775 141.304 27.6172C141.233 27.7569 141.198 27.9121 141.202 28.0688C141.203 28.269 141.266 28.4641 141.381 28.6275C141.497 28.7908 141.66 28.9145 141.849 28.9817C142.499 29.2529 143.174 29.4571 143.865 29.5911C144.735 29.8046 145.591 30.0718 146.428 30.3911C147.103 30.6634 147.701 31.0992 148.166 31.6593C148.665 32.2428 148.923 33.0271 148.941 34.0122C148.949 34.809 148.701 35.5874 148.235 36.2333C147.721 36.9204 147.027 37.4514 146.23 37.7674C145.274 38.1549 144.25 38.3454 143.218 38.3274C142.088 38.3466 140.967 38.1311 139.924 37.6944Z" fill="white"/>
</svg>
