<svg width="161" height="56" viewBox="0 0 161 56" fill="none" xmlns="http://www.w3.org/2000/svg">
<path d="M26.3426 22.6085C26.3412 23.2575 26.1096 23.8849 25.6891 24.3793C25.2686 24.8736 24.6864 25.2028 24.0461 25.3083C23.4057 25.4138 22.7487 25.2888 22.1918 24.9555C21.635 24.6222 21.2143 24.1022 21.0048 23.488C20.7952 22.8738 20.8102 22.2052 21.0471 21.601C21.2841 20.9968 21.7276 20.4963 22.2989 20.1883C22.8701 19.8803 23.5321 19.7849 24.1671 19.9191C24.802 20.0532 25.3688 20.4082 25.7667 20.9209C26.1413 21.4036 26.344 21.9975 26.3426 22.6085Z" fill="#2F8647"/>
<path d="M30.9891 15.7227L27.3585 19.3532C27.2782 19.4344 27.1691 19.4808 27.0549 19.4824C26.9407 19.484 26.8304 19.4406 26.7478 19.3617C25.538 18.1898 23.6446 17.7331 22.0572 18.3217C20.34 18.9545 19.1397 20.8173 19.3358 22.6389C19.4782 23.9521 20.2598 25.1145 21.1701 26.0733L21.1965 26.1017C21.9233 26.8569 22.3263 27.8661 22.3196 28.9142C22.3129 29.9623 21.897 30.9663 21.1606 31.7121L20.1058 32.7753C20.0276 32.8542 19.9224 32.9004 19.8114 32.9047C19.7004 32.909 19.5919 32.8711 19.5078 32.7985C18.0764 31.5655 16.6525 30.3156 15.4131 28.8895C14.0841 27.3622 12.965 25.6144 12.3985 23.6705C11.7617 21.4426 11.891 19.0655 12.7656 16.9199C12.9833 16.3892 13.2481 15.8791 13.5567 15.3957C13.7107 15.1541 13.8731 14.9189 14.0535 14.6932C14.2581 14.4306 14.4849 14.188 14.7127 13.9422L15.0228 13.6099C15.0629 13.5665 15.1114 13.5316 15.1653 13.5073C15.2192 13.4831 15.2775 13.47 15.3366 13.4688C15.3957 13.4676 15.4544 13.4784 15.5093 13.5004C15.5641 13.5225 15.6139 13.5555 15.6557 13.5973L16.45 14.3873C16.5191 14.4565 16.6118 14.497 16.7095 14.5009C16.8073 14.5048 16.9029 14.4718 16.9774 14.4084C18.9718 12.74 21.5218 11.8845 24.1189 12.0126C26.716 12.1406 29.1695 13.2428 30.9901 15.0993C31.0312 15.1402 31.0638 15.1888 31.0861 15.2423C31.1083 15.2958 31.1196 15.3532 31.1196 15.4112C31.1195 15.4692 31.1079 15.5265 31.0855 15.58C31.0631 15.6335 31.0303 15.6819 30.9891 15.7227Z" fill="#2F4786"/>
<path d="M22.0896 33.6778C22.0899 33.1706 22.2346 32.6741 22.5067 32.2461C22.7788 31.8182 23.167 31.4765 23.6261 31.261C24.0852 31.0455 24.5961 30.9651 25.0991 31.0292C25.6022 31.0934 26.0766 31.2993 26.4669 31.6231C26.5955 31.7292 26.7134 31.8476 26.8192 31.9764C27.0927 32.3066 27.2826 32.6978 27.373 33.1169C27.4635 33.5361 27.4517 33.9708 27.3387 34.3844C27.2257 34.798 27.0149 35.1783 26.7239 35.4932C26.433 35.8082 26.0706 36.0485 25.6672 36.1939C25.2639 36.3392 24.8314 36.3854 24.4065 36.3284C23.9815 36.2715 23.5765 36.1131 23.2257 35.8667C22.8748 35.6202 22.5884 35.293 22.3907 34.9125C22.193 34.5321 22.0897 34.1097 22.0896 33.6809V33.6778Z" fill="#2F4786"/>
<path d="M17.3856 40.281L21.0172 36.6515C21.0974 36.5705 21.2061 36.5241 21.3201 36.5223C21.4341 36.5206 21.5442 36.5635 21.6269 36.642C22.8399 37.8149 24.7311 38.2717 26.3143 37.6831C28.0326 37.0502 29.2329 35.1875 29.0357 33.3659C28.8943 32.0527 28.1127 30.8903 27.2025 29.9315L27.175 29.903C26.4487 29.1476 26.046 28.1385 26.0527 27.0905C26.0594 26.0426 26.475 25.0387 27.2109 24.2926L28.2657 23.2294C28.3437 23.1507 28.4487 23.1045 28.5594 23.1C28.6702 23.0955 28.7785 23.133 28.8627 23.2052C30.294 24.4392 31.718 25.6892 32.9584 27.1142C34.2874 28.6426 35.4066 30.3903 35.9719 32.3343C36.6102 34.562 36.4809 36.9396 35.6049 39.0849C35.3879 39.6157 35.1235 40.1258 34.8148 40.6091C34.6598 40.8506 34.4984 41.0858 34.318 41.3115C34.1071 41.5742 33.8866 41.8168 33.6577 42.0626L33.3434 42.3906C33.3033 42.434 33.2549 42.4689 33.2009 42.4932C33.147 42.5175 33.0888 42.5306 33.0297 42.5318C32.9706 42.5329 32.9118 42.5222 32.857 42.5001C32.8021 42.478 32.7523 42.4451 32.7105 42.4032L31.9163 41.6132C31.847 41.5443 31.7543 41.5039 31.6567 41.5C31.559 41.4961 31.4635 41.529 31.3889 41.5921C29.3961 43.2596 26.848 44.1149 24.2527 43.9874C21.6574 43.86 19.2054 42.7591 17.3856 40.9044C17.3446 40.8635 17.312 40.815 17.2898 40.7615C17.2675 40.708 17.2561 40.6506 17.2561 40.5927C17.2561 40.5348 17.2675 40.4774 17.2898 40.424C17.312 40.3705 17.3446 40.3219 17.3856 40.281Z" fill="#2F8647"/>
<path d="M52.3853 37.5632C51.4074 37.1772 50.5551 36.5285 49.9226 35.6887C49.2947 34.8231 48.9546 33.7822 48.9502 32.7129H53.5475C53.5768 33.2795 53.8216 33.8135 54.2317 34.2055C54.651 34.5671 55.1922 34.7556 55.7454 34.7327C56.2872 34.7628 56.8231 34.6065 57.2638 34.2898C57.4465 34.1444 57.5921 33.9577 57.6886 33.7451C57.7852 33.5325 57.8299 33.3 57.8191 33.0667C57.8263 32.8653 57.7915 32.6646 57.7169 32.4774C57.6423 32.2902 57.5294 32.1206 57.3856 31.9795C57.0692 31.6807 56.7007 31.4425 56.2984 31.2765C55.7004 31.0325 55.0894 30.8213 54.4684 30.6439C53.5061 30.361 52.5663 30.007 51.6566 29.5847C50.9158 29.219 50.2731 28.6816 49.782 28.0172C49.2618 27.3236 49.0017 26.4183 49.0017 25.3014C49.0017 23.6518 49.5993 22.3592 50.7943 21.4235C51.9893 20.4878 53.5514 20.0191 55.4806 20.0176C57.4348 20.0176 59.0094 20.4862 60.2044 21.4235C61.3995 22.3608 62.0399 23.662 62.1259 25.3272H57.4395C57.435 25.07 57.3763 24.8167 57.2673 24.5838C57.1583 24.3508 57.0014 24.1434 56.8068 23.9752C56.3864 23.6355 55.8566 23.4606 55.3166 23.4831C54.8585 23.4611 54.4085 23.6097 54.0536 23.9002C53.8764 24.0738 53.7419 24.2861 53.6607 24.5204C53.5795 24.7548 53.5537 25.0048 53.5855 25.2508C53.6173 25.4967 53.7058 25.732 53.8439 25.938C53.9821 26.144 54.1662 26.3151 54.3817 26.4379C55.1882 26.8734 56.0379 27.2236 56.917 27.4829C57.8709 27.7927 58.8039 28.1637 59.71 28.5936C60.439 28.9579 61.0741 29.4855 61.5658 30.1354C62.0891 30.8087 62.3508 31.6756 62.3508 32.7363C62.3613 33.7095 62.0939 34.6655 61.5799 35.4919C61.0336 36.3448 60.2592 37.0275 59.3445 37.4625C58.2596 37.9725 57.0703 38.2212 55.8719 38.1889C54.68 38.2102 53.4954 37.9977 52.3853 37.5632Z" fill="#2F4786"/>
<path d="M67.6954 37.3357C66.6054 36.7588 65.7029 35.8824 65.0944 34.8097C64.4693 33.6278 64.1435 32.3107 64.1455 30.9737C64.1476 29.6366 64.4774 28.3205 65.1062 27.1405C65.7183 26.0616 66.6254 25.1797 67.7211 24.5982C68.8785 23.9981 70.1667 23.6946 71.4702 23.7148C72.7651 23.6986 74.0439 24.002 75.1935 24.5982C76.2932 25.1772 77.2046 26.0585 77.8202 27.1382C78.4767 28.3057 78.8084 29.6278 78.7809 30.9669C78.809 32.3069 78.473 33.6294 77.8085 34.7933C77.183 35.8743 76.2631 36.7553 75.156 37.3333C73.9977 37.9307 72.7102 38.2341 71.4069 38.2167C70.1159 38.2347 68.8406 37.932 67.6954 37.3357ZM73.5322 33.5702C74.1133 32.9625 74.4039 32.0956 74.4039 30.9693C74.4039 29.843 74.1203 28.9752 73.5533 28.366C73.2859 28.0785 72.9624 27.8489 72.6028 27.6913C72.2432 27.5337 71.8552 27.4515 71.4626 27.4497C71.0699 27.4479 70.6811 27.5267 70.3201 27.6811C69.9592 27.8354 69.6336 28.0622 69.3637 28.3473C68.8076 28.9456 68.5295 29.8172 68.5295 30.9622C68.5295 32.1073 68.8037 32.9742 69.352 33.5632C69.6076 33.8565 69.9246 34.09 70.2806 34.2471C70.6365 34.4042 71.0227 34.4811 71.4116 34.4723C71.8068 34.4786 72.1989 34.4015 72.5622 34.2461C72.9256 34.0906 73.2521 33.8603 73.5205 33.5702H73.5322Z" fill="#2F4786"/>
<path d="M81.124 27.1292C81.6945 26.0597 82.5652 25.1801 83.6288 24.5986C84.7587 23.9949 86.0245 23.6908 87.3053 23.7152C89.072 23.7152 90.5498 24.1784 91.7386 25.1047C92.9273 26.0311 93.7084 27.3362 94.0817 29.0202H89.4868C89.0978 27.9423 88.3503 27.4034 87.2373 27.4034C86.8705 27.3919 86.5064 27.4699 86.1765 27.6308C85.8466 27.7917 85.5609 28.0305 85.344 28.3266C84.8754 28.9405 84.6411 29.8208 84.6411 30.9673C84.6411 32.1139 84.8754 32.9934 85.344 33.6058C85.5609 33.9019 85.8466 34.1407 86.1765 34.3016C86.5064 34.4624 86.8705 34.5405 87.2373 34.529C88.3503 34.529 89.0978 33.99 89.4868 32.9122H94.0841C93.7138 34.5618 92.9328 35.8583 91.7409 36.8018C90.549 37.7454 89.0751 38.214 87.3193 38.2077C86.0348 38.2382 84.764 37.938 83.6288 37.3361C82.567 36.7551 81.6974 35.8773 81.1263 34.8101C80.5375 33.6155 80.2312 32.3015 80.2312 30.9697C80.2312 29.6378 80.5375 28.3238 81.1263 27.1292H81.124Z" fill="#2F4786"/>
<path d="M96.6878 21.7865C96.456 21.5787 96.2718 21.3233 96.1477 21.0378C96.0235 20.7523 95.9624 20.4434 95.9685 20.1322C95.9605 19.8169 96.0207 19.5036 96.1448 19.2137C96.269 18.9237 96.4542 18.664 96.6878 18.4521C97.1958 17.9944 97.8628 17.7539 98.546 17.782C99.221 17.7567 99.8789 17.9973 100.378 18.4521C100.612 18.6643 100.797 18.9241 100.921 19.214C101.045 19.5038 101.105 19.817 101.098 20.1322C101.103 20.4434 101.042 20.7521 100.918 21.0375C100.794 21.3228 100.61 21.5783 100.378 21.7865C99.8789 22.2413 99.221 22.482 98.546 22.4566C97.8628 22.4848 97.1958 22.2442 96.6878 21.7865ZM100.692 23.9211V38.02H96.3738V23.9188L100.692 23.9211Z" fill="#2F4786"/>
<path d="M106.517 37.3356C105.427 36.7582 104.524 35.882 103.914 34.8097C103.267 33.6351 102.944 32.3098 102.977 30.9692C102.948 29.6299 103.28 28.3075 103.938 27.1405C104.55 26.0613 105.458 25.1793 106.555 24.5982C107.716 24.0173 108.996 23.7148 110.295 23.7148C111.593 23.7148 112.873 24.0173 114.034 24.5982C115.137 25.1768 116.051 26.059 116.668 27.1405C117.301 28.3175 117.631 29.6333 117.629 30.9695C117.627 32.3058 117.293 33.6205 116.656 34.7956C116.03 35.8768 115.109 36.7577 114.002 37.3356C112.843 37.9333 111.556 38.2367 110.252 38.219C108.953 38.2403 107.669 37.9367 106.517 37.3356ZM112.354 33.5702C112.935 32.9625 113.226 32.0955 113.226 30.9692C113.226 29.843 112.943 28.9752 112.378 28.366C112.11 28.0801 111.787 27.852 111.428 27.6957C111.069 27.5394 110.682 27.4582 110.29 27.4571C109.899 27.456 109.511 27.535 109.151 27.6893C108.791 27.8436 108.467 28.0699 108.198 28.3543C107.641 28.9525 107.363 29.8242 107.363 30.9692C107.363 32.1143 107.638 32.9812 108.186 33.5702C108.441 33.8633 108.758 34.0967 109.113 34.2538C109.469 34.4109 109.854 34.4879 110.243 34.4793C110.639 34.485 111.032 34.407 111.396 34.2503C111.76 34.0936 112.086 33.8619 112.354 33.5702Z" fill="#2F4786"/>
<path d="M133.841 23.9189V38.0178H129.52V36.0964C129.061 36.7381 128.449 37.2551 127.739 37.6007C126.967 37.9856 126.114 38.1808 125.251 38.1701C124.252 38.19 123.266 37.9407 122.397 37.4484C121.563 36.961 120.894 36.2357 120.475 35.3653C120.001 34.3632 119.767 33.2638 119.794 32.1552V23.9189H124.089V31.5741C124.089 32.5114 124.333 33.244 124.822 33.772C125.075 34.0359 125.382 34.2425 125.722 34.3779C126.062 34.5132 126.427 34.5743 126.793 34.5569C127.162 34.5753 127.531 34.5148 127.875 34.3794C128.22 34.2441 128.531 34.037 128.789 33.772C129.276 33.2518 129.52 32.5192 129.52 31.5741V23.9189H133.841Z" fill="#2F4786"/>
<path d="M139.397 37.5886C138.502 37.2177 137.719 36.6211 137.124 35.857C136.574 35.1473 136.248 34.2901 136.187 33.3944H140.456C140.477 33.6294 140.55 33.857 140.667 34.0617C140.785 34.2663 140.945 34.4431 141.138 34.58C141.57 34.8933 142.094 35.054 142.628 35.0369C143.068 35.0636 143.505 34.9531 143.879 34.7206C144.016 34.632 144.129 34.5102 144.206 34.3663C144.284 34.2225 144.324 34.0615 144.322 33.8981C144.324 33.7014 144.264 33.5091 144.15 33.3485C144.037 33.1878 143.875 33.067 143.689 33.0031C143.027 32.7304 142.343 32.5148 141.644 32.3587C140.785 32.1684 139.941 31.9186 139.118 31.6112C138.442 31.3503 137.842 30.9251 137.372 30.374C136.885 29.8101 136.641 29.0478 136.641 28.0871C136.634 27.2995 136.868 26.5287 137.311 25.8775C137.803 25.1731 138.487 24.625 139.282 24.2982C140.261 23.8893 141.314 23.6913 142.375 23.7171C144.143 23.7171 145.537 24.1552 146.557 25.0316C147.065 25.4689 147.481 26.002 147.782 26.6002C148.083 27.1985 148.263 27.8502 148.312 28.5182H144.317C144.293 28.2899 144.224 28.0686 144.113 27.8674C144.003 27.6663 143.853 27.4892 143.673 27.3466C143.261 27.0434 142.757 26.8911 142.246 26.9155C141.835 26.8879 141.425 26.9895 141.074 27.206C140.946 27.2946 140.841 27.4138 140.771 27.5529C140.7 27.6921 140.665 27.8467 140.669 28.0027C140.67 28.2021 140.732 28.3964 140.848 28.5591C140.963 28.7217 141.126 28.8449 141.313 28.9119C141.96 29.1819 142.633 29.3853 143.321 29.5188C144.188 29.7314 145.04 29.9974 145.873 30.3154C146.546 30.5866 147.141 31.0206 147.605 31.5784C148.102 32.1595 148.359 32.9406 148.376 33.9216C148.384 34.7151 148.138 35.4903 147.673 36.1335C147.162 36.8178 146.47 37.3466 145.676 37.6613C144.724 38.0472 143.704 38.2369 142.677 38.219C141.552 38.2381 140.435 38.0235 139.397 37.5886Z" fill="#2F4786"/>
</svg>
